<mxfile host="Electron" modified="2023-11-20T18:45:26.708Z" agent="Mozilla/5.0 (Windows NT 10.0; Win64; x64) AppleWebKit/537.36 (KHTML, like Gecko) draw.io/22.1.2 Chrome/114.0.5735.289 Electron/25.9.4 Safari/537.36" version="22.1.2" etag="V6km6uDpc5WNSv-RYOSR" type="device" pages="5">
  <diagram id="haCYDGVRe8IbIqYVvX6t" name="VUE D&quot;ENSEMBLE">
    <mxGraphModel dx="1434" dy="836" grid="1" gridSize="10" guides="1" tooltips="1" connect="1" arrows="1" fold="1" page="1" pageScale="1" pageWidth="1100" pageHeight="1700" math="0" shadow="0">
      <root>
        <mxCell id="0" />
        <mxCell id="1" parent="0" />
        <mxCell id="2" value="Conception de logicel&lt;br&gt;Laboratoire 3&lt;br&gt;&lt;br&gt;Vue d&#39;ensemble de l&#39;application&lt;br&gt;&lt;br&gt;Version 0&lt;br&gt;Novembre 2023" style="rounded=0;whiteSpace=wrap;html=1;fillColor=#a20025;fontColor=#ffffff;strokeColor=#6F0000;" parent="1" vertex="1">
          <mxGeometry width="320" height="120" as="geometry" />
        </mxCell>
        <mxCell id="10" style="edgeStyle=orthogonalEdgeStyle;html=1;exitX=0.5;exitY=1;exitDx=0;exitDy=0;" parent="1" source="3" target="4" edge="1">
          <mxGeometry relative="1" as="geometry" />
        </mxCell>
        <mxCell id="3" value="Utilisateur" style="html=1;fillColor=#d80073;fontColor=#ffffff;strokeColor=#A50040;" parent="1" vertex="1">
          <mxGeometry x="120" y="240" width="120" height="40" as="geometry" />
        </mxCell>
        <mxCell id="8" style="edgeStyle=orthogonalEdgeStyle;html=1;exitX=1;exitY=0.5;exitDx=0;exitDy=0;entryX=0;entryY=0.5;entryDx=0;entryDy=0;" parent="1" source="4" target="6" edge="1">
          <mxGeometry relative="1" as="geometry" />
        </mxCell>
        <mxCell id="9" style="edgeStyle=orthogonalEdgeStyle;html=1;exitX=1;exitY=0.5;exitDx=0;exitDy=0;entryX=0;entryY=0.5;entryDx=0;entryDy=0;" parent="1" source="4" target="5" edge="1">
          <mxGeometry relative="1" as="geometry" />
        </mxCell>
        <mxCell id="11" style="edgeStyle=orthogonalEdgeStyle;html=1;exitX=0.5;exitY=1;exitDx=0;exitDy=0;entryX=0.5;entryY=0;entryDx=0;entryDy=0;" parent="1" source="4" target="7" edge="1">
          <mxGeometry relative="1" as="geometry" />
        </mxCell>
        <mxCell id="4" value="Creation de groupe" style="html=1;" parent="1" vertex="1">
          <mxGeometry x="120" y="360" width="120" height="40" as="geometry" />
        </mxCell>
        <mxCell id="5" value="Ajout utilisateur" style="html=1;" parent="1" vertex="1">
          <mxGeometry x="280" y="400" width="120" height="40" as="geometry" />
        </mxCell>
        <mxCell id="6" value="Effacer utilisateur" style="html=1;" parent="1" vertex="1">
          <mxGeometry x="280" y="320" width="120" height="40" as="geometry" />
        </mxCell>
        <mxCell id="7" value="Destruction groupe" style="html=1;" parent="1" vertex="1">
          <mxGeometry x="120" y="480" width="120" height="40" as="geometry" />
        </mxCell>
        <mxCell id="12" value="Gestion des groupes" style="swimlane;whiteSpace=wrap;html=1;fillColor=#60a917;fontColor=#ffffff;strokeColor=#2D7600;" parent="1" vertex="1">
          <mxGeometry x="80" y="200" width="360" height="360" as="geometry" />
        </mxCell>
        <mxCell id="19" style="edgeStyle=orthogonalEdgeStyle;html=1;exitX=0.5;exitY=1;exitDx=0;exitDy=0;" parent="1" source="13" target="18" edge="1">
          <mxGeometry relative="1" as="geometry" />
        </mxCell>
        <mxCell id="13" value="Contenu" style="html=1;" parent="1" vertex="1">
          <mxGeometry x="720" y="240" width="120" height="40" as="geometry" />
        </mxCell>
        <mxCell id="15" value="Controlleur de contenu&lt;br&gt;Base de donnees" style="shape=cylinder3;whiteSpace=wrap;html=1;boundedLbl=1;backgroundOutline=1;size=15;fillColor=#0050ef;fontColor=#ffffff;strokeColor=#001DBC;" parent="1" vertex="1">
          <mxGeometry x="710" y="440" width="140" height="110" as="geometry" />
        </mxCell>
        <mxCell id="17" style="edgeStyle=orthogonalEdgeStyle;html=1;exitX=0.5;exitY=1;exitDx=0;exitDy=0;" parent="1" source="16" target="13" edge="1">
          <mxGeometry relative="1" as="geometry" />
        </mxCell>
        <mxCell id="29" style="edgeStyle=orthogonalEdgeStyle;html=1;exitX=0;exitY=0.5;exitDx=0;exitDy=0;entryX=0.5;entryY=0.125;entryDx=0;entryDy=0;entryPerimeter=0;" parent="1" source="16" target="27" edge="1">
          <mxGeometry relative="1" as="geometry" />
        </mxCell>
        <mxCell id="16" value="Utilisateur" style="html=1;fillColor=#d80073;fontColor=#ffffff;strokeColor=#A50040;" parent="1" vertex="1">
          <mxGeometry x="720" y="160" width="120" height="40" as="geometry" />
        </mxCell>
        <mxCell id="20" style="edgeStyle=orthogonalEdgeStyle;html=1;exitX=0.5;exitY=1;exitDx=0;exitDy=0;" parent="1" source="18" target="15" edge="1">
          <mxGeometry relative="1" as="geometry" />
        </mxCell>
        <mxCell id="25" style="edgeStyle=orthogonalEdgeStyle;html=1;exitX=1;exitY=0.5;exitDx=0;exitDy=0;" parent="1" source="18" target="23" edge="1">
          <mxGeometry relative="1" as="geometry" />
        </mxCell>
        <mxCell id="26" style="edgeStyle=orthogonalEdgeStyle;html=1;exitX=1;exitY=0.5;exitDx=0;exitDy=0;entryX=0;entryY=0.5;entryDx=0;entryDy=0;" parent="1" source="18" target="24" edge="1">
          <mxGeometry relative="1" as="geometry" />
        </mxCell>
        <mxCell id="18" value="&amp;nbsp;Option de&lt;br&gt;partage" style="shape=rhombus;html=1;dashed=0;whitespace=wrap;perimeter=rhombusPerimeter;" parent="1" vertex="1">
          <mxGeometry x="715" y="320" width="130" height="80" as="geometry" />
        </mxCell>
        <mxCell id="22" style="edgeStyle=orthogonalEdgeStyle;html=1;exitX=0;exitY=0.5;exitDx=0;exitDy=0;" parent="1" source="21" target="15" edge="1">
          <mxGeometry relative="1" as="geometry" />
        </mxCell>
        <mxCell id="21" value="Utilisateur" style="html=1;" parent="1" vertex="1">
          <mxGeometry x="890" y="475" width="120" height="40" as="geometry" />
        </mxCell>
        <mxCell id="23" value="Profil" style="html=1;" parent="1" vertex="1">
          <mxGeometry x="890" y="320" width="120" height="40" as="geometry" />
        </mxCell>
        <mxCell id="24" value="Groupe" style="html=1;" parent="1" vertex="1">
          <mxGeometry x="890" y="360" width="120" height="40" as="geometry" />
        </mxCell>
        <mxCell id="28" style="edgeStyle=orthogonalEdgeStyle;html=1;exitX=1;exitY=0.5;exitDx=0;exitDy=0;" parent="1" source="27" target="15" edge="1">
          <mxGeometry relative="1" as="geometry" />
        </mxCell>
        <mxCell id="27" value="Commentaires" style="html=1;" parent="1" vertex="1">
          <mxGeometry x="550" y="475" width="120" height="40" as="geometry" />
        </mxCell>
        <mxCell id="30" value="Partage de contenu" style="swimlane;whiteSpace=wrap;html=1;fillColor=#0050ef;fontColor=#ffffff;strokeColor=#001DBC;" parent="1" vertex="1">
          <mxGeometry x="520" y="120" width="520" height="440" as="geometry" />
        </mxCell>
        <mxCell id="36" style="edgeStyle=orthogonalEdgeStyle;html=1;exitX=0.5;exitY=1;exitDx=0;exitDy=0;" parent="1" source="31" target="34" edge="1">
          <mxGeometry relative="1" as="geometry" />
        </mxCell>
        <mxCell id="31" value="Utilisateur" style="html=1;fillColor=#d80073;fontColor=#ffffff;strokeColor=#A50040;" parent="1" vertex="1">
          <mxGeometry x="380" y="640" width="120" height="40" as="geometry" />
        </mxCell>
        <mxCell id="43" style="edgeStyle=orthogonalEdgeStyle;html=1;exitX=0;exitY=0.5;exitDx=0;exitDy=0;exitPerimeter=0;" parent="1" source="32" target="39" edge="1">
          <mxGeometry relative="1" as="geometry" />
        </mxCell>
        <mxCell id="47" style="edgeStyle=orthogonalEdgeStyle;html=1;exitX=1;exitY=0.5;exitDx=0;exitDy=0;exitPerimeter=0;" parent="1" source="32" target="46" edge="1">
          <mxGeometry relative="1" as="geometry" />
        </mxCell>
        <mxCell id="32" value="Controlleur de messagerie&lt;br&gt;Base de donnees" style="shape=cylinder3;whiteSpace=wrap;html=1;boundedLbl=1;backgroundOutline=1;size=15;fillColor=#a20025;fontColor=#ffffff;strokeColor=#6F0000;" parent="1" vertex="1">
          <mxGeometry x="240" y="950" width="160" height="115" as="geometry" />
        </mxCell>
        <mxCell id="44" style="edgeStyle=orthogonalEdgeStyle;html=1;exitX=0.5;exitY=1;exitDx=0;exitDy=0;" parent="1" source="33" target="34" edge="1">
          <mxGeometry relative="1" as="geometry" />
        </mxCell>
        <mxCell id="33" value="Contacts" style="html=1;" parent="1" vertex="1">
          <mxGeometry x="140" y="640" width="120" height="40" as="geometry" />
        </mxCell>
        <mxCell id="37" style="edgeStyle=orthogonalEdgeStyle;html=1;exitX=0.5;exitY=1;exitDx=0;exitDy=0;" parent="1" source="34" target="35" edge="1">
          <mxGeometry relative="1" as="geometry" />
        </mxCell>
        <mxCell id="34" value="Message" style="html=1;" parent="1" vertex="1">
          <mxGeometry x="260" y="720" width="120" height="40" as="geometry" />
        </mxCell>
        <mxCell id="42" style="edgeStyle=orthogonalEdgeStyle;html=1;exitX=0.5;exitY=1;exitDx=0;exitDy=0;" parent="1" source="35" target="32" edge="1">
          <mxGeometry relative="1" as="geometry" />
        </mxCell>
        <mxCell id="62" style="edgeStyle=orthogonalEdgeStyle;html=1;exitX=1;exitY=0.5;exitDx=0;exitDy=0;entryX=0;entryY=0.151;entryDx=0;entryDy=0;entryPerimeter=0;" parent="1" source="35" target="57" edge="1">
          <mxGeometry relative="1" as="geometry" />
        </mxCell>
        <mxCell id="35" value="&amp;nbsp;Options de&lt;br&gt;partage" style="shape=rhombus;html=1;dashed=0;whitespace=wrap;perimeter=rhombusPerimeter;" parent="1" vertex="1">
          <mxGeometry x="150" y="810" width="130" height="80" as="geometry" />
        </mxCell>
        <mxCell id="55" style="edgeStyle=orthogonalEdgeStyle;html=1;exitX=0.5;exitY=0;exitDx=0;exitDy=0;entryX=0;entryY=0.5;entryDx=0;entryDy=0;" parent="1" source="39" target="33" edge="1">
          <mxGeometry relative="1" as="geometry" />
        </mxCell>
        <mxCell id="39" value="Notification" style="html=1;" parent="1" vertex="1">
          <mxGeometry x="50" y="987.5" width="120" height="40" as="geometry" />
        </mxCell>
        <mxCell id="56" style="edgeStyle=orthogonalEdgeStyle;html=1;exitX=0.5;exitY=0;exitDx=0;exitDy=0;entryX=1;entryY=0.5;entryDx=0;entryDy=0;" parent="1" source="46" target="31" edge="1">
          <mxGeometry relative="1" as="geometry" />
        </mxCell>
        <mxCell id="46" value="Notification" style="html=1;" parent="1" vertex="1">
          <mxGeometry x="480" y="987.5" width="120" height="40" as="geometry" />
        </mxCell>
        <mxCell id="57" value="Options de partage" style="swimlane;fontStyle=0;childLayout=stackLayout;horizontal=1;startSize=26;horizontalStack=0;resizeParent=1;resizeParentMax=0;resizeLast=0;collapsible=1;marginBottom=0;align=center;fontSize=14;" parent="1" vertex="1">
          <mxGeometry x="330" y="807" width="160" height="86" as="geometry" />
        </mxCell>
        <mxCell id="58" value="Groupe ou contact" style="text;strokeColor=none;fillColor=none;spacingLeft=4;spacingRight=4;overflow=hidden;rotatable=0;points=[[0,0.5],[1,0.5]];portConstraint=eastwest;fontSize=12;" parent="57" vertex="1">
          <mxGeometry y="26" width="160" height="30" as="geometry" />
        </mxCell>
        <mxCell id="59" value="Public ou prive " style="text;strokeColor=none;fillColor=none;spacingLeft=4;spacingRight=4;overflow=hidden;rotatable=0;points=[[0,0.5],[1,0.5]];portConstraint=eastwest;fontSize=12;" parent="57" vertex="1">
          <mxGeometry y="56" width="160" height="30" as="geometry" />
        </mxCell>
        <mxCell id="63" value="Service de messagerie" style="swimlane;whiteSpace=wrap;html=1;fillColor=#a20025;fontColor=#ffffff;strokeColor=#6F0000;" parent="1" vertex="1">
          <mxGeometry x="40" y="600" width="570" height="480" as="geometry" />
        </mxCell>
        <mxCell id="78" value="Decouverte" style="swimlane;whiteSpace=wrap;html=1;fillColor=#6a00ff;fontColor=#ffffff;strokeColor=#3700CC;" parent="1" vertex="1">
          <mxGeometry x="630" y="600" width="440" height="460" as="geometry" />
        </mxCell>
        <mxCell id="64" value="Controlleur d&#39;utilisateurs&lt;br&gt;Base de donnees" style="shape=cylinder3;whiteSpace=wrap;html=1;boundedLbl=1;backgroundOutline=1;size=15;fillColor=#6a00ff;fontColor=#ffffff;strokeColor=#3700CC;" parent="78" vertex="1">
          <mxGeometry x="140" y="330" width="160" height="115" as="geometry" />
        </mxCell>
        <mxCell id="65" value="Utilisateur" style="html=1;fillColor=#d80073;fontColor=#ffffff;strokeColor=#A50040;" parent="78" vertex="1">
          <mxGeometry x="160" y="50" width="120" height="40" as="geometry" />
        </mxCell>
        <mxCell id="66" value="Activation&lt;br&gt;Decouverte" style="shape=rhombus;html=1;dashed=0;whitespace=wrap;perimeter=rhombusPerimeter;" parent="78" vertex="1">
          <mxGeometry x="155" y="130" width="130" height="80" as="geometry" />
        </mxCell>
        <mxCell id="68" style="edgeStyle=orthogonalEdgeStyle;html=1;exitX=0.5;exitY=1;exitDx=0;exitDy=0;" parent="78" source="65" target="66" edge="1">
          <mxGeometry relative="1" as="geometry" />
        </mxCell>
        <mxCell id="73" style="edgeStyle=orthogonalEdgeStyle;html=1;exitX=0.5;exitY=1;exitDx=0;exitDy=0;" parent="78" source="67" target="64" edge="1">
          <mxGeometry relative="1" as="geometry" />
        </mxCell>
        <mxCell id="67" value="" style="shape=sumEllipse;perimeter=ellipsePerimeter;whiteSpace=wrap;html=1;backgroundOutline=1;" parent="78" vertex="1">
          <mxGeometry x="200" y="240" width="40" height="37" as="geometry" />
        </mxCell>
        <mxCell id="69" style="edgeStyle=orthogonalEdgeStyle;html=1;exitX=0.5;exitY=1;exitDx=0;exitDy=0;" parent="78" source="66" target="67" edge="1">
          <mxGeometry relative="1" as="geometry" />
        </mxCell>
        <mxCell id="72" style="edgeStyle=orthogonalEdgeStyle;html=1;exitX=0;exitY=0.5;exitDx=0;exitDy=0;entryX=1;entryY=0.5;entryDx=0;entryDy=0;" parent="78" source="70" target="67" edge="1">
          <mxGeometry relative="1" as="geometry" />
        </mxCell>
        <mxCell id="70" value="Criteres de recherche" style="html=1;" parent="78" vertex="1">
          <mxGeometry x="285" y="238.5" width="120" height="40" as="geometry" />
        </mxCell>
        <mxCell id="71" style="edgeStyle=orthogonalEdgeStyle;html=1;exitX=1;exitY=0.5;exitDx=0;exitDy=0;" parent="78" source="65" target="70" edge="1">
          <mxGeometry relative="1" as="geometry" />
        </mxCell>
        <mxCell id="75" style="edgeStyle=orthogonalEdgeStyle;html=1;exitX=0.5;exitY=0;exitDx=0;exitDy=0;entryX=0;entryY=0.5;entryDx=0;entryDy=0;" parent="78" source="74" target="65" edge="1">
          <mxGeometry relative="1" as="geometry" />
        </mxCell>
        <mxCell id="74" value="Membres&lt;br&gt;Evenements&lt;br&gt;Partenaires" style="html=1;" parent="78" vertex="1">
          <mxGeometry x="40" y="218.75" width="120" height="79.5" as="geometry" />
        </mxCell>
        <mxCell id="77" style="edgeStyle=orthogonalEdgeStyle;html=1;exitX=0;exitY=0.5;exitDx=0;exitDy=0;exitPerimeter=0;" parent="78" source="64" target="74" edge="1">
          <mxGeometry relative="1" as="geometry" />
        </mxCell>
        <mxCell id="88" style="edgeStyle=orthogonalEdgeStyle;html=1;exitX=0.5;exitY=1;exitDx=0;exitDy=0;exitPerimeter=0;entryX=1;entryY=0.5;entryDx=0;entryDy=0;" parent="1" source="80" target="84" edge="1">
          <mxGeometry relative="1" as="geometry" />
        </mxCell>
        <mxCell id="80" value="Controlleur d&#39;utilisateurs&lt;br&gt;Base de donnees" style="shape=cylinder3;whiteSpace=wrap;html=1;boundedLbl=1;backgroundOutline=1;size=15;fillColor=#fa6800;fontColor=#000000;strokeColor=#C73500;" parent="1" vertex="1">
          <mxGeometry x="860" y="1270" width="160" height="115" as="geometry" />
        </mxCell>
        <mxCell id="86" style="edgeStyle=orthogonalEdgeStyle;html=1;exitX=0.5;exitY=0;exitDx=0;exitDy=0;entryX=0;entryY=0.5;entryDx=0;entryDy=0;" parent="1" source="81" target="85" edge="1">
          <mxGeometry relative="1" as="geometry" />
        </mxCell>
        <mxCell id="101" style="edgeStyle=orthogonalEdgeStyle;html=1;exitX=1;exitY=0.5;exitDx=0;exitDy=0;" parent="1" source="81" target="83" edge="1">
          <mxGeometry relative="1" as="geometry" />
        </mxCell>
        <mxCell id="81" value="Utilisateur" style="html=1;fillColor=#d80073;fontColor=#ffffff;strokeColor=#A50040;" parent="1" vertex="1">
          <mxGeometry x="80" y="1307.5" width="120" height="40" as="geometry" />
        </mxCell>
        <mxCell id="94" style="edgeStyle=orthogonalEdgeStyle;html=1;exitX=1;exitY=0.5;exitDx=0;exitDy=0;" parent="1" source="83" target="91" edge="1">
          <mxGeometry relative="1" as="geometry" />
        </mxCell>
        <mxCell id="95" style="edgeStyle=orthogonalEdgeStyle;html=1;exitX=1;exitY=0.5;exitDx=0;exitDy=0;entryX=0;entryY=0.5;entryDx=0;entryDy=0;" parent="1" source="83" target="93" edge="1">
          <mxGeometry relative="1" as="geometry" />
        </mxCell>
        <mxCell id="96" style="edgeStyle=orthogonalEdgeStyle;html=1;exitX=1;exitY=0.5;exitDx=0;exitDy=0;" parent="1" source="83" target="92" edge="1">
          <mxGeometry relative="1" as="geometry" />
        </mxCell>
        <mxCell id="83" value="Modifications&lt;br&gt;Profil&lt;br&gt;Utilisateur" style="shape=step;perimeter=stepPerimeter;whiteSpace=wrap;html=1;fixedSize=1;" parent="1" vertex="1">
          <mxGeometry x="240" y="1287.5" width="120" height="80" as="geometry" />
        </mxCell>
        <mxCell id="89" style="edgeStyle=orthogonalEdgeStyle;html=1;exitX=0;exitY=0.5;exitDx=0;exitDy=0;" parent="1" source="84" target="81" edge="1">
          <mxGeometry relative="1" as="geometry" />
        </mxCell>
        <mxCell id="84" value="Profil Utilisateur" style="html=1;" parent="1" vertex="1">
          <mxGeometry x="460" y="1427.5" width="120" height="40" as="geometry" />
        </mxCell>
        <mxCell id="87" style="edgeStyle=orthogonalEdgeStyle;html=1;exitX=1;exitY=0.5;exitDx=0;exitDy=0;" parent="1" source="85" target="80" edge="1">
          <mxGeometry relative="1" as="geometry" />
        </mxCell>
        <mxCell id="85" value="Connexion" style="ellipse;whiteSpace=wrap;html=1;" parent="1" vertex="1">
          <mxGeometry x="460" y="1190" width="120" height="37.5" as="geometry" />
        </mxCell>
        <mxCell id="98" style="edgeStyle=orthogonalEdgeStyle;html=1;exitX=1;exitY=0.5;exitDx=0;exitDy=0;entryX=0;entryY=0.5;entryDx=0;entryDy=0;" parent="1" source="91" target="97" edge="1">
          <mxGeometry relative="1" as="geometry" />
        </mxCell>
        <mxCell id="91" value="Profil Utilisateur" style="html=1;" parent="1" vertex="1">
          <mxGeometry x="460" y="1267.5" width="120" height="40" as="geometry" />
        </mxCell>
        <mxCell id="99" style="edgeStyle=orthogonalEdgeStyle;html=1;exitX=1;exitY=0.5;exitDx=0;exitDy=0;" parent="1" source="92" target="97" edge="1">
          <mxGeometry relative="1" as="geometry" />
        </mxCell>
        <mxCell id="92" value="Abonnements" style="html=1;" parent="1" vertex="1">
          <mxGeometry x="460" y="1307.5" width="120" height="40" as="geometry" />
        </mxCell>
        <mxCell id="100" style="edgeStyle=orthogonalEdgeStyle;html=1;exitX=1;exitY=0.5;exitDx=0;exitDy=0;" parent="1" source="93" target="97" edge="1">
          <mxGeometry relative="1" as="geometry" />
        </mxCell>
        <mxCell id="93" value="Parametres" style="html=1;" parent="1" vertex="1">
          <mxGeometry x="460" y="1347.5" width="120" height="40" as="geometry" />
        </mxCell>
        <mxCell id="102" style="edgeStyle=orthogonalEdgeStyle;html=1;exitX=1;exitY=0.5;exitDx=0;exitDy=0;" parent="1" source="97" target="80" edge="1">
          <mxGeometry relative="1" as="geometry" />
        </mxCell>
        <mxCell id="97" value="Validation" style="shape=step;perimeter=stepPerimeter;whiteSpace=wrap;html=1;fixedSize=1;" parent="1" vertex="1">
          <mxGeometry x="680" y="1287.5" width="120" height="80" as="geometry" />
        </mxCell>
        <mxCell id="103" value="Modification profil utilisateur" style="swimlane;whiteSpace=wrap;html=1;fillColor=#fa6800;fontColor=#000000;strokeColor=#C73500;" parent="1" vertex="1">
          <mxGeometry x="50" y="1140" width="1000" height="370" as="geometry" />
        </mxCell>
      </root>
    </mxGraphModel>
  </diagram>
  <diagram id="VpDuI0EtdxwhiPGQwlks" name="CAS UTILISATION">
    <mxGraphModel dx="1434" dy="836" grid="1" gridSize="10" guides="1" tooltips="1" connect="1" arrows="1" fold="1" page="1" pageScale="1" pageWidth="827" pageHeight="1169" math="0" shadow="0">
      <root>
        <mxCell id="0" />
        <mxCell id="1" parent="0" />
        <mxCell id="DTmMfVwVqoHziRDDNP4N-11" value="AppRoximité&lt;br&gt;Réseau Social&amp;nbsp; basé sur la Proximité" style="html=1;whiteSpace=wrap;horizontal=1;verticalAlign=top;fillColor=#e1d5e7;strokeColor=#9673a6;fontStyle=1" vertex="1" parent="1">
          <mxGeometry x="310" y="140" width="200" height="2480" as="geometry" />
        </mxCell>
        <mxCell id="dL3pzQKzcQ38fd-omLR7-9" value="Création de Groupes" style="html=1;whiteSpace=wrap;horizontal=1;verticalAlign=top;fillColor=#f5f5f5;fontColor=#333333;strokeColor=#666666;fontStyle=1" vertex="1" parent="1">
          <mxGeometry x="330" y="200" width="160" height="400" as="geometry" />
        </mxCell>
        <mxCell id="F95BAvxed9zrv9kjJUJj-1" value="Conception de logicel&lt;br&gt;Laboratoire 3&lt;br&gt;&lt;br&gt;Vue d&#39;ensemble du logiciel&lt;br&gt;Cas d&#39;utilisation&lt;br&gt;&lt;br&gt;Version 0&lt;br&gt;Novembre 2023" style="rounded=0;whiteSpace=wrap;html=1;fillColor=#a20025;fontColor=#ffffff;strokeColor=#6F0000;" vertex="1" parent="1">
          <mxGeometry width="320" height="120" as="geometry" />
        </mxCell>
        <mxCell id="dL3pzQKzcQ38fd-omLR7-1" value="Utilisateur &lt;br&gt;d&#39;AppRoximité" style="shape=umlActor;verticalLabelPosition=middle;verticalAlign=middle;html=1;labelPosition=left;align=right;fillColor=#67AB9F;" vertex="1" parent="1">
          <mxGeometry x="140" y="350" width="30" height="60" as="geometry" />
        </mxCell>
        <mxCell id="dL3pzQKzcQ38fd-omLR7-12" style="orthogonalLoop=1;jettySize=auto;html=1;exitX=0;exitY=0.5;exitDx=0;exitDy=0;endArrow=none;endFill=0;entryX=0.75;entryY=0.1;entryDx=0;entryDy=0;entryPerimeter=0;" edge="1" parent="1" source="dL3pzQKzcQ38fd-omLR7-3" target="dL3pzQKzcQ38fd-omLR7-1">
          <mxGeometry relative="1" as="geometry">
            <mxPoint x="220" y="310" as="targetPoint" />
            <mxPoint x="330" y="270" as="sourcePoint" />
          </mxGeometry>
        </mxCell>
        <mxCell id="dL3pzQKzcQ38fd-omLR7-3" value="Créer &lt;br&gt;un groupe local" style="ellipse;whiteSpace=wrap;html=1;" vertex="1" parent="1">
          <mxGeometry x="340" y="240" width="140" height="70" as="geometry" />
        </mxCell>
        <mxCell id="dL3pzQKzcQ38fd-omLR7-4" value="Ajouter &lt;br&gt;un&amp;nbsp;membre au groupe" style="ellipse;whiteSpace=wrap;html=1;" vertex="1" parent="1">
          <mxGeometry x="344" y="330" width="140" height="70" as="geometry" />
        </mxCell>
        <mxCell id="dL3pzQKzcQ38fd-omLR7-5" value="Supprimer &lt;br&gt;un groupe" style="ellipse;whiteSpace=wrap;html=1;" vertex="1" parent="1">
          <mxGeometry x="344" y="515" width="140" height="70" as="geometry" />
        </mxCell>
        <mxCell id="dL3pzQKzcQ38fd-omLR7-13" style="orthogonalLoop=1;jettySize=auto;html=1;endArrow=none;endFill=0;exitX=0;exitY=0.5;exitDx=0;exitDy=0;entryX=1;entryY=0.3333333333333333;entryDx=0;entryDy=0;entryPerimeter=0;" edge="1" parent="1" source="dL3pzQKzcQ38fd-omLR7-4" target="dL3pzQKzcQ38fd-omLR7-1">
          <mxGeometry relative="1" as="geometry">
            <mxPoint x="230" y="320" as="targetPoint" />
            <mxPoint x="350" y="285" as="sourcePoint" />
          </mxGeometry>
        </mxCell>
        <mxCell id="dL3pzQKzcQ38fd-omLR7-14" style="orthogonalLoop=1;jettySize=auto;html=1;endArrow=none;endFill=0;exitX=0;exitY=0.5;exitDx=0;exitDy=0;entryX=1;entryY=1;entryDx=0;entryDy=0;entryPerimeter=0;" edge="1" parent="1" source="dL3pzQKzcQ38fd-omLR7-5" target="dL3pzQKzcQ38fd-omLR7-1">
          <mxGeometry relative="1" as="geometry">
            <mxPoint x="209" y="410" as="targetPoint" />
            <mxPoint x="344" y="455" as="sourcePoint" />
          </mxGeometry>
        </mxCell>
        <mxCell id="dL3pzQKzcQ38fd-omLR7-26" value="Retirer&lt;br&gt;un&amp;nbsp;membre au groupe" style="ellipse;whiteSpace=wrap;html=1;" vertex="1" parent="1">
          <mxGeometry x="340" y="420" width="140" height="70" as="geometry" />
        </mxCell>
        <mxCell id="dL3pzQKzcQ38fd-omLR7-27" style="orthogonalLoop=1;jettySize=auto;html=1;endArrow=none;endFill=0;exitX=0;exitY=0.5;exitDx=0;exitDy=0;entryX=0.5;entryY=0.5;entryDx=0;entryDy=0;entryPerimeter=0;" edge="1" parent="1" source="dL3pzQKzcQ38fd-omLR7-26" target="dL3pzQKzcQ38fd-omLR7-1">
          <mxGeometry relative="1" as="geometry">
            <mxPoint x="215" y="410" as="targetPoint" />
            <mxPoint x="360" y="375" as="sourcePoint" />
          </mxGeometry>
        </mxCell>
        <mxCell id="dL3pzQKzcQ38fd-omLR7-28" value="Publication de Contenus" style="html=1;whiteSpace=wrap;horizontal=1;verticalAlign=top;fillColor=#dae8fc;strokeColor=#6c8ebf;fontStyle=1" vertex="1" parent="1">
          <mxGeometry x="330" y="660" width="160" height="480" as="geometry" />
        </mxCell>
        <mxCell id="dL3pzQKzcQ38fd-omLR7-29" value="Utilisateur &lt;br&gt;d&#39;AppRoximité" style="shape=umlActor;verticalLabelPosition=middle;verticalAlign=middle;html=1;labelPosition=left;align=right;fillColor=#67AB9F;" vertex="1" parent="1">
          <mxGeometry x="140" y="810" width="30" height="60" as="geometry" />
        </mxCell>
        <mxCell id="dL3pzQKzcQ38fd-omLR7-30" style="orthogonalLoop=1;jettySize=auto;html=1;exitX=0;exitY=0.5;exitDx=0;exitDy=0;endArrow=none;endFill=0;entryX=0.75;entryY=0.1;entryDx=0;entryDy=0;entryPerimeter=0;" edge="1" parent="1" source="dL3pzQKzcQ38fd-omLR7-31" target="dL3pzQKzcQ38fd-omLR7-29">
          <mxGeometry relative="1" as="geometry">
            <mxPoint x="220" y="770" as="targetPoint" />
            <mxPoint x="330" y="730" as="sourcePoint" />
          </mxGeometry>
        </mxCell>
        <mxCell id="dL3pzQKzcQ38fd-omLR7-31" value="Sélectionner&lt;br&gt;des photos ou vidéos" style="ellipse;whiteSpace=wrap;html=1;" vertex="1" parent="1">
          <mxGeometry x="340" y="700" width="140" height="70" as="geometry" />
        </mxCell>
        <mxCell id="dL3pzQKzcQ38fd-omLR7-32" value="Téléverser&lt;br&gt;sur le profil" style="ellipse;whiteSpace=wrap;html=1;" vertex="1" parent="1">
          <mxGeometry x="344" y="790" width="140" height="70" as="geometry" />
        </mxCell>
        <mxCell id="dL3pzQKzcQ38fd-omLR7-33" value="Ajouter &lt;br&gt;des commentaires" style="ellipse;whiteSpace=wrap;html=1;" vertex="1" parent="1">
          <mxGeometry x="344" y="975" width="140" height="70" as="geometry" />
        </mxCell>
        <mxCell id="dL3pzQKzcQ38fd-omLR7-34" style="orthogonalLoop=1;jettySize=auto;html=1;endArrow=none;endFill=0;exitX=0;exitY=0.5;exitDx=0;exitDy=0;entryX=1;entryY=0.3333333333333333;entryDx=0;entryDy=0;entryPerimeter=0;" edge="1" parent="1" source="dL3pzQKzcQ38fd-omLR7-32" target="dL3pzQKzcQ38fd-omLR7-29">
          <mxGeometry relative="1" as="geometry">
            <mxPoint x="230" y="780" as="targetPoint" />
            <mxPoint x="350" y="745" as="sourcePoint" />
          </mxGeometry>
        </mxCell>
        <mxCell id="dL3pzQKzcQ38fd-omLR7-35" style="orthogonalLoop=1;jettySize=auto;html=1;endArrow=none;endFill=0;exitX=0;exitY=0.5;exitDx=0;exitDy=0;entryX=1;entryY=1;entryDx=0;entryDy=0;entryPerimeter=0;" edge="1" parent="1" source="dL3pzQKzcQ38fd-omLR7-33" target="dL3pzQKzcQ38fd-omLR7-29">
          <mxGeometry relative="1" as="geometry">
            <mxPoint x="209" y="870" as="targetPoint" />
            <mxPoint x="344" y="915" as="sourcePoint" />
          </mxGeometry>
        </mxCell>
        <mxCell id="dL3pzQKzcQ38fd-omLR7-36" value="Téléverser&lt;br&gt;dans un groupe spécifique" style="ellipse;whiteSpace=wrap;html=1;" vertex="1" parent="1">
          <mxGeometry x="340" y="880" width="140" height="70" as="geometry" />
        </mxCell>
        <mxCell id="dL3pzQKzcQ38fd-omLR7-37" style="orthogonalLoop=1;jettySize=auto;html=1;endArrow=none;endFill=0;exitX=0;exitY=0.5;exitDx=0;exitDy=0;entryX=0.5;entryY=0.5;entryDx=0;entryDy=0;entryPerimeter=0;" edge="1" parent="1" source="dL3pzQKzcQ38fd-omLR7-36" target="dL3pzQKzcQ38fd-omLR7-29">
          <mxGeometry relative="1" as="geometry">
            <mxPoint x="215" y="870" as="targetPoint" />
            <mxPoint x="360" y="835" as="sourcePoint" />
          </mxGeometry>
        </mxCell>
        <mxCell id="dL3pzQKzcQ38fd-omLR7-38" value="Ajouter &lt;br&gt;des hastags" style="ellipse;whiteSpace=wrap;html=1;" vertex="1" parent="1">
          <mxGeometry x="344" y="1065" width="140" height="70" as="geometry" />
        </mxCell>
        <mxCell id="dL3pzQKzcQ38fd-omLR7-39" style="orthogonalLoop=1;jettySize=auto;html=1;endArrow=none;endFill=0;exitX=0;exitY=0.5;exitDx=0;exitDy=0;entryX=0;entryY=1;entryDx=0;entryDy=0;entryPerimeter=0;" edge="1" parent="1" source="dL3pzQKzcQ38fd-omLR7-38" target="dL3pzQKzcQ38fd-omLR7-29">
          <mxGeometry relative="1" as="geometry">
            <mxPoint x="170" y="960" as="targetPoint" />
            <mxPoint x="344" y="1005" as="sourcePoint" />
          </mxGeometry>
        </mxCell>
        <mxCell id="dL3pzQKzcQ38fd-omLR7-40" value="Messagerie" style="html=1;whiteSpace=wrap;horizontal=1;verticalAlign=top;fillColor=#d5e8d4;strokeColor=#82b366;labelBackgroundColor=none;labelBorderColor=none;fontStyle=1" vertex="1" parent="1">
          <mxGeometry x="330" y="1200" width="160" height="310" as="geometry" />
        </mxCell>
        <mxCell id="dL3pzQKzcQ38fd-omLR7-41" value="Utilisateur &lt;br&gt;d&#39;AppRoximité" style="shape=umlActor;verticalLabelPosition=middle;verticalAlign=middle;html=1;labelPosition=left;align=right;shadow=0;labelBackgroundColor=none;labelBorderColor=none;direction=east;fillStyle=auto;fillColor=#67AB9F;" vertex="1" parent="1">
          <mxGeometry x="140" y="1350" width="30" height="60" as="geometry" />
        </mxCell>
        <mxCell id="dL3pzQKzcQ38fd-omLR7-42" style="orthogonalLoop=1;jettySize=auto;html=1;exitX=0;exitY=0.5;exitDx=0;exitDy=0;endArrow=none;endFill=0;entryX=0.75;entryY=0.1;entryDx=0;entryDy=0;entryPerimeter=0;" edge="1" parent="1" source="dL3pzQKzcQ38fd-omLR7-43" target="dL3pzQKzcQ38fd-omLR7-41">
          <mxGeometry relative="1" as="geometry">
            <mxPoint x="220" y="1310" as="targetPoint" />
            <mxPoint x="330" y="1270" as="sourcePoint" />
          </mxGeometry>
        </mxCell>
        <mxCell id="dL3pzQKzcQ38fd-omLR7-43" value="Envoyer&lt;br&gt;des messages privés" style="ellipse;whiteSpace=wrap;html=1;" vertex="1" parent="1">
          <mxGeometry x="340" y="1240" width="140" height="70" as="geometry" />
        </mxCell>
        <mxCell id="dL3pzQKzcQ38fd-omLR7-44" value="Créer&lt;br&gt;des converstion de groupe" style="ellipse;whiteSpace=wrap;html=1;" vertex="1" parent="1">
          <mxGeometry x="344" y="1330" width="140" height="70" as="geometry" />
        </mxCell>
        <mxCell id="dL3pzQKzcQ38fd-omLR7-46" style="orthogonalLoop=1;jettySize=auto;html=1;endArrow=none;endFill=0;exitX=0;exitY=0.5;exitDx=0;exitDy=0;entryX=1;entryY=0.3333333333333333;entryDx=0;entryDy=0;entryPerimeter=0;" edge="1" parent="1" source="dL3pzQKzcQ38fd-omLR7-44" target="dL3pzQKzcQ38fd-omLR7-41">
          <mxGeometry relative="1" as="geometry">
            <mxPoint x="230" y="1320" as="targetPoint" />
            <mxPoint x="350" y="1285" as="sourcePoint" />
          </mxGeometry>
        </mxCell>
        <mxCell id="dL3pzQKzcQ38fd-omLR7-48" value="Recevoir&lt;br&gt;des notifications de nouveaux messages" style="ellipse;whiteSpace=wrap;html=1;" vertex="1" parent="1">
          <mxGeometry x="340" y="1420" width="140" height="70" as="geometry" />
        </mxCell>
        <mxCell id="dL3pzQKzcQ38fd-omLR7-49" style="orthogonalLoop=1;jettySize=auto;html=1;endArrow=none;endFill=0;exitX=0;exitY=0.5;exitDx=0;exitDy=0;entryX=0.5;entryY=0.5;entryDx=0;entryDy=0;entryPerimeter=0;" edge="1" parent="1" source="dL3pzQKzcQ38fd-omLR7-48" target="dL3pzQKzcQ38fd-omLR7-41">
          <mxGeometry relative="1" as="geometry">
            <mxPoint x="215" y="1410" as="targetPoint" />
            <mxPoint x="360" y="1375" as="sourcePoint" />
          </mxGeometry>
        </mxCell>
        <mxCell id="dL3pzQKzcQ38fd-omLR7-52" value="Découverte" style="html=1;whiteSpace=wrap;horizontal=1;verticalAlign=top;fillColor=#ffe6cc;strokeColor=#d79b00;fontStyle=1" vertex="1" parent="1">
          <mxGeometry x="330" y="1560" width="160" height="580" as="geometry" />
        </mxCell>
        <mxCell id="dL3pzQKzcQ38fd-omLR7-53" value="Utilisateur &lt;br&gt;d&#39;AppRoximité" style="shape=umlActor;verticalLabelPosition=middle;verticalAlign=middle;html=1;labelPosition=left;align=right;fillColor=#67AB9F;" vertex="1" parent="1">
          <mxGeometry x="140" y="1710" width="30" height="60" as="geometry" />
        </mxCell>
        <mxCell id="dL3pzQKzcQ38fd-omLR7-54" style="orthogonalLoop=1;jettySize=auto;html=1;exitX=0;exitY=0.5;exitDx=0;exitDy=0;endArrow=none;endFill=0;entryX=0.75;entryY=0.1;entryDx=0;entryDy=0;entryPerimeter=0;" edge="1" parent="1" source="dL3pzQKzcQ38fd-omLR7-55" target="dL3pzQKzcQ38fd-omLR7-53">
          <mxGeometry relative="1" as="geometry">
            <mxPoint x="220" y="1670" as="targetPoint" />
            <mxPoint x="330" y="1630" as="sourcePoint" />
          </mxGeometry>
        </mxCell>
        <mxCell id="dL3pzQKzcQ38fd-omLR7-55" value="Activer&lt;br&gt;la localisation" style="ellipse;whiteSpace=wrap;html=1;" vertex="1" parent="1">
          <mxGeometry x="340" y="1600" width="140" height="70" as="geometry" />
        </mxCell>
        <mxCell id="dL3pzQKzcQ38fd-omLR7-56" value="Désactiver&lt;br&gt;la localisation" style="ellipse;whiteSpace=wrap;html=1;" vertex="1" parent="1">
          <mxGeometry x="344" y="1690" width="140" height="70" as="geometry" />
        </mxCell>
        <mxCell id="dL3pzQKzcQ38fd-omLR7-57" value="Trouver&lt;br style=&quot;border-color: var(--border-color);&quot;&gt;des événement à proximité" style="ellipse;whiteSpace=wrap;html=1;" vertex="1" parent="1">
          <mxGeometry x="344" y="1875" width="140" height="70" as="geometry" />
        </mxCell>
        <mxCell id="dL3pzQKzcQ38fd-omLR7-58" style="orthogonalLoop=1;jettySize=auto;html=1;endArrow=none;endFill=0;exitX=0;exitY=0.5;exitDx=0;exitDy=0;entryX=1;entryY=0.3333333333333333;entryDx=0;entryDy=0;entryPerimeter=0;" edge="1" parent="1" source="dL3pzQKzcQ38fd-omLR7-56" target="dL3pzQKzcQ38fd-omLR7-53">
          <mxGeometry relative="1" as="geometry">
            <mxPoint x="230" y="1680" as="targetPoint" />
            <mxPoint x="350" y="1645" as="sourcePoint" />
          </mxGeometry>
        </mxCell>
        <mxCell id="dL3pzQKzcQ38fd-omLR7-59" style="orthogonalLoop=1;jettySize=auto;html=1;endArrow=none;endFill=0;exitX=0;exitY=0.5;exitDx=0;exitDy=0;entryX=1;entryY=1;entryDx=0;entryDy=0;entryPerimeter=0;" edge="1" parent="1" source="dL3pzQKzcQ38fd-omLR7-57" target="dL3pzQKzcQ38fd-omLR7-53">
          <mxGeometry relative="1" as="geometry">
            <mxPoint x="209" y="1770" as="targetPoint" />
            <mxPoint x="344" y="1815" as="sourcePoint" />
          </mxGeometry>
        </mxCell>
        <mxCell id="dL3pzQKzcQ38fd-omLR7-60" value="Trouver&lt;br&gt;des utilisateurs à proximité" style="ellipse;whiteSpace=wrap;html=1;" vertex="1" parent="1">
          <mxGeometry x="340" y="1780" width="140" height="70" as="geometry" />
        </mxCell>
        <mxCell id="dL3pzQKzcQ38fd-omLR7-61" style="orthogonalLoop=1;jettySize=auto;html=1;endArrow=none;endFill=0;exitX=0;exitY=0.5;exitDx=0;exitDy=0;entryX=0.5;entryY=0.5;entryDx=0;entryDy=0;entryPerimeter=0;" edge="1" parent="1" source="dL3pzQKzcQ38fd-omLR7-60" target="dL3pzQKzcQ38fd-omLR7-53">
          <mxGeometry relative="1" as="geometry">
            <mxPoint x="215" y="1770" as="targetPoint" />
            <mxPoint x="360" y="1735" as="sourcePoint" />
          </mxGeometry>
        </mxCell>
        <mxCell id="dL3pzQKzcQ38fd-omLR7-62" value="S&#39;inscrire&lt;br&gt;à des événements" style="ellipse;whiteSpace=wrap;html=1;" vertex="1" parent="1">
          <mxGeometry x="344" y="1965" width="140" height="70" as="geometry" />
        </mxCell>
        <mxCell id="dL3pzQKzcQ38fd-omLR7-63" style="orthogonalLoop=1;jettySize=auto;html=1;endArrow=none;endFill=0;exitX=0;exitY=0.5;exitDx=0;exitDy=0;entryX=0;entryY=1;entryDx=0;entryDy=0;entryPerimeter=0;" edge="1" parent="1" source="dL3pzQKzcQ38fd-omLR7-62" target="dL3pzQKzcQ38fd-omLR7-53">
          <mxGeometry relative="1" as="geometry">
            <mxPoint x="170" y="1860" as="targetPoint" />
            <mxPoint x="344" y="1905" as="sourcePoint" />
          </mxGeometry>
        </mxCell>
        <mxCell id="dL3pzQKzcQ38fd-omLR7-64" value="Intéragir&lt;br&gt;avec les publications d&#39;autres utilisateurs" style="ellipse;whiteSpace=wrap;html=1;" vertex="1" parent="1">
          <mxGeometry x="340" y="2050" width="140" height="70" as="geometry" />
        </mxCell>
        <mxCell id="dL3pzQKzcQ38fd-omLR7-65" style="orthogonalLoop=1;jettySize=auto;html=1;endArrow=none;endFill=0;exitX=0;exitY=0.5;exitDx=0;exitDy=0;entryX=0;entryY=1;entryDx=0;entryDy=0;entryPerimeter=0;" edge="1" parent="1" source="dL3pzQKzcQ38fd-omLR7-64" target="dL3pzQKzcQ38fd-omLR7-53">
          <mxGeometry relative="1" as="geometry">
            <mxPoint x="136" y="1867.5" as="targetPoint" />
            <mxPoint x="340" y="2002.5" as="sourcePoint" />
          </mxGeometry>
        </mxCell>
        <mxCell id="DTmMfVwVqoHziRDDNP4N-1" value="Gestion du Profil" style="html=1;whiteSpace=wrap;horizontal=1;verticalAlign=top;fillColor=#f8cecc;strokeColor=#b85450;fontStyle=1" vertex="1" parent="1">
          <mxGeometry x="330" y="2200" width="160" height="400" as="geometry" />
        </mxCell>
        <mxCell id="DTmMfVwVqoHziRDDNP4N-2" value="Utilisateur &lt;br&gt;d&#39;AppRoximité" style="shape=umlActor;verticalLabelPosition=middle;verticalAlign=middle;html=1;labelPosition=left;align=right;fillColor=#67AB9F;" vertex="1" parent="1">
          <mxGeometry x="140" y="2350" width="30" height="60" as="geometry" />
        </mxCell>
        <mxCell id="DTmMfVwVqoHziRDDNP4N-3" style="orthogonalLoop=1;jettySize=auto;html=1;exitX=0;exitY=0.5;exitDx=0;exitDy=0;endArrow=none;endFill=0;entryX=0.75;entryY=0.1;entryDx=0;entryDy=0;entryPerimeter=0;" edge="1" parent="1" source="DTmMfVwVqoHziRDDNP4N-4" target="DTmMfVwVqoHziRDDNP4N-2">
          <mxGeometry relative="1" as="geometry">
            <mxPoint x="220" y="2310" as="targetPoint" />
            <mxPoint x="330" y="2270" as="sourcePoint" />
          </mxGeometry>
        </mxCell>
        <mxCell id="DTmMfVwVqoHziRDDNP4N-4" value="Mettre à jour&lt;br&gt;les informations personnelles" style="ellipse;whiteSpace=wrap;html=1;" vertex="1" parent="1">
          <mxGeometry x="340" y="2240" width="140" height="70" as="geometry" />
        </mxCell>
        <mxCell id="DTmMfVwVqoHziRDDNP4N-5" value="Ajouter &lt;br&gt;des centres d&#39;intérêt" style="ellipse;whiteSpace=wrap;html=1;" vertex="1" parent="1">
          <mxGeometry x="344" y="2330" width="140" height="70" as="geometry" />
        </mxCell>
        <mxCell id="DTmMfVwVqoHziRDDNP4N-6" value="Gérer&lt;br&gt;les abonnements" style="ellipse;whiteSpace=wrap;html=1;" vertex="1" parent="1">
          <mxGeometry x="344" y="2515" width="140" height="70" as="geometry" />
        </mxCell>
        <mxCell id="DTmMfVwVqoHziRDDNP4N-7" style="orthogonalLoop=1;jettySize=auto;html=1;endArrow=none;endFill=0;exitX=0;exitY=0.5;exitDx=0;exitDy=0;entryX=1;entryY=0.3333333333333333;entryDx=0;entryDy=0;entryPerimeter=0;" edge="1" parent="1" source="DTmMfVwVqoHziRDDNP4N-5" target="DTmMfVwVqoHziRDDNP4N-2">
          <mxGeometry relative="1" as="geometry">
            <mxPoint x="230" y="2320" as="targetPoint" />
            <mxPoint x="350" y="2285" as="sourcePoint" />
          </mxGeometry>
        </mxCell>
        <mxCell id="DTmMfVwVqoHziRDDNP4N-8" style="orthogonalLoop=1;jettySize=auto;html=1;endArrow=none;endFill=0;exitX=0;exitY=0.5;exitDx=0;exitDy=0;entryX=1;entryY=1;entryDx=0;entryDy=0;entryPerimeter=0;" edge="1" parent="1" source="DTmMfVwVqoHziRDDNP4N-6" target="DTmMfVwVqoHziRDDNP4N-2">
          <mxGeometry relative="1" as="geometry">
            <mxPoint x="209" y="2410" as="targetPoint" />
            <mxPoint x="344" y="2455" as="sourcePoint" />
          </mxGeometry>
        </mxCell>
        <mxCell id="DTmMfVwVqoHziRDDNP4N-9" value="Modifier&lt;br&gt;les paramètres de confidentialité" style="ellipse;whiteSpace=wrap;html=1;" vertex="1" parent="1">
          <mxGeometry x="340" y="2420" width="140" height="70" as="geometry" />
        </mxCell>
        <mxCell id="DTmMfVwVqoHziRDDNP4N-10" style="orthogonalLoop=1;jettySize=auto;html=1;endArrow=none;endFill=0;exitX=0;exitY=0.5;exitDx=0;exitDy=0;entryX=0.5;entryY=0.5;entryDx=0;entryDy=0;entryPerimeter=0;" edge="1" parent="1" source="DTmMfVwVqoHziRDDNP4N-9" target="DTmMfVwVqoHziRDDNP4N-2">
          <mxGeometry relative="1" as="geometry">
            <mxPoint x="215" y="2410" as="targetPoint" />
            <mxPoint x="360" y="2375" as="sourcePoint" />
          </mxGeometry>
        </mxCell>
      </root>
    </mxGraphModel>
  </diagram>
  <diagram id="UFdiIFnc5HN6pGQML-RX" name="NOTIFICATION">
    <mxGraphModel dx="1434" dy="836" grid="1" gridSize="10" guides="1" tooltips="1" connect="1" arrows="1" fold="1" page="1" pageScale="1" pageWidth="1400" pageHeight="850" math="0" shadow="0">
      <root>
        <mxCell id="0" />
        <mxCell id="1" parent="0" />
        <mxCell id="l0NX0rqQ7C8WN52qhcHU-1" value="Conception de logicel&lt;br&gt;Laboratoire 3&lt;br&gt;&lt;br&gt;Gestion des notifications&lt;br&gt;&lt;br&gt;Version 0&lt;br&gt;Novembre 2023" style="rounded=0;whiteSpace=wrap;html=1;fillColor=#a20025;fontColor=#ffffff;strokeColor=#6F0000;" parent="1" vertex="1">
          <mxGeometry x="1080" width="320" height="120" as="geometry" />
        </mxCell>
        <mxCell id="R3AlAm0W0zi-2Ks8pdnL-26" style="edgeStyle=orthogonalEdgeStyle;html=1;exitX=0.5;exitY=1;exitDx=0;exitDy=0;exitPerimeter=0;" parent="1" source="R3AlAm0W0zi-2Ks8pdnL-1" target="R3AlAm0W0zi-2Ks8pdnL-25" edge="1">
          <mxGeometry relative="1" as="geometry" />
        </mxCell>
        <mxCell id="R3AlAm0W0zi-2Ks8pdnL-36" style="edgeStyle=orthogonalEdgeStyle;html=1;exitX=1;exitY=0.5;exitDx=0;exitDy=0;exitPerimeter=0;" parent="1" source="R3AlAm0W0zi-2Ks8pdnL-1" target="R3AlAm0W0zi-2Ks8pdnL-35" edge="1">
          <mxGeometry relative="1" as="geometry" />
        </mxCell>
        <mxCell id="R3AlAm0W0zi-2Ks8pdnL-56" style="edgeStyle=orthogonalEdgeStyle;html=1;exitX=0.145;exitY=0;exitDx=0;exitDy=4.35;exitPerimeter=0;entryX=1;entryY=0.5;entryDx=0;entryDy=0;" parent="1" source="R3AlAm0W0zi-2Ks8pdnL-1" target="R3AlAm0W0zi-2Ks8pdnL-22" edge="1">
          <mxGeometry relative="1" as="geometry">
            <Array as="points">
              <mxPoint x="698" y="160" />
            </Array>
          </mxGeometry>
        </mxCell>
        <mxCell id="R3AlAm0W0zi-2Ks8pdnL-1" value="Controlleur de messagerie&lt;br&gt;Base de donnees" style="shape=cylinder3;whiteSpace=wrap;html=1;boundedLbl=1;backgroundOutline=1;size=15;fillColor=#a20025;fontColor=#ffffff;strokeColor=#6F0000;" parent="1" vertex="1">
          <mxGeometry x="675" y="325" width="160" height="115" as="geometry" />
        </mxCell>
        <mxCell id="R3AlAm0W0zi-2Ks8pdnL-51" style="edgeStyle=orthogonalEdgeStyle;html=1;exitX=0.5;exitY=1;exitDx=0;exitDy=0;entryX=0.5;entryY=0;entryDx=0;entryDy=0;" parent="1" source="R3AlAm0W0zi-2Ks8pdnL-2" target="R3AlAm0W0zi-2Ks8pdnL-50" edge="1">
          <mxGeometry relative="1" as="geometry" />
        </mxCell>
        <mxCell id="R3AlAm0W0zi-2Ks8pdnL-52" style="edgeStyle=orthogonalEdgeStyle;html=1;exitX=0.5;exitY=1;exitDx=0;exitDy=0;" parent="1" source="R3AlAm0W0zi-2Ks8pdnL-2" target="R3AlAm0W0zi-2Ks8pdnL-10" edge="1">
          <mxGeometry relative="1" as="geometry" />
        </mxCell>
        <mxCell id="R3AlAm0W0zi-2Ks8pdnL-2" value="Partenaire" style="rounded=0;whiteSpace=wrap;html=1;fillColor=#d80073;fontColor=#ffffff;strokeColor=#A50040;" parent="1" vertex="1">
          <mxGeometry x="205" y="140" width="120" height="40" as="geometry" />
        </mxCell>
        <mxCell id="6qpf-OhKiiXSJHIyFdE2-2" style="edgeStyle=orthogonalEdgeStyle;html=1;exitX=0.5;exitY=1;exitDx=0;exitDy=0;entryX=0.5;entryY=0;entryDx=0;entryDy=0;" parent="1" source="R3AlAm0W0zi-2Ks8pdnL-3" target="6qpf-OhKiiXSJHIyFdE2-1" edge="1">
          <mxGeometry relative="1" as="geometry" />
        </mxCell>
        <mxCell id="Zm-BFcqicCEameqNaV_R-4" style="edgeStyle=none;html=1;exitX=1;exitY=0.5;exitDx=0;exitDy=0;" parent="1" source="R3AlAm0W0zi-2Ks8pdnL-3" target="Zm-BFcqicCEameqNaV_R-2" edge="1">
          <mxGeometry relative="1" as="geometry" />
        </mxCell>
        <mxCell id="Zm-BFcqicCEameqNaV_R-5" style="edgeStyle=orthogonalEdgeStyle;html=1;exitX=1;exitY=0.5;exitDx=0;exitDy=0;entryX=0;entryY=0.5;entryDx=0;entryDy=0;" parent="1" source="R3AlAm0W0zi-2Ks8pdnL-3" target="Zm-BFcqicCEameqNaV_R-1" edge="1">
          <mxGeometry relative="1" as="geometry" />
        </mxCell>
        <mxCell id="Zm-BFcqicCEameqNaV_R-6" style="edgeStyle=orthogonalEdgeStyle;html=1;exitX=1;exitY=0.5;exitDx=0;exitDy=0;entryX=0;entryY=0.5;entryDx=0;entryDy=0;" parent="1" source="R3AlAm0W0zi-2Ks8pdnL-3" target="Zm-BFcqicCEameqNaV_R-3" edge="1">
          <mxGeometry relative="1" as="geometry" />
        </mxCell>
        <mxCell id="R3AlAm0W0zi-2Ks8pdnL-3" value="Type d&#39;envoi?" style="rhombus;whiteSpace=wrap;html=1;" parent="1" vertex="1">
          <mxGeometry x="180" y="660" width="120" height="80" as="geometry" />
        </mxCell>
        <mxCell id="R3AlAm0W0zi-2Ks8pdnL-54" style="edgeStyle=orthogonalEdgeStyle;html=1;exitX=0.5;exitY=1;exitDx=0;exitDy=0;" parent="1" source="R3AlAm0W0zi-2Ks8pdnL-10" target="R3AlAm0W0zi-2Ks8pdnL-27" edge="1">
          <mxGeometry relative="1" as="geometry" />
        </mxCell>
        <mxCell id="R3AlAm0W0zi-2Ks8pdnL-10" value="Contenu" style="rounded=0;whiteSpace=wrap;html=1;" parent="1" vertex="1">
          <mxGeometry x="305" y="240" width="120" height="60" as="geometry" />
        </mxCell>
        <mxCell id="R3AlAm0W0zi-2Ks8pdnL-21" style="edgeStyle=orthogonalEdgeStyle;html=1;exitX=1;exitY=0.5;exitDx=0;exitDy=0;" parent="1" source="R3AlAm0W0zi-2Ks8pdnL-19" target="R3AlAm0W0zi-2Ks8pdnL-1" edge="1">
          <mxGeometry relative="1" as="geometry" />
        </mxCell>
        <mxCell id="R3AlAm0W0zi-2Ks8pdnL-19" value="Sauvegarde" style="shape=step;perimeter=stepPerimeter;whiteSpace=wrap;html=1;fixedSize=1;" parent="1" vertex="1">
          <mxGeometry x="515" y="342.5" width="120" height="80" as="geometry" />
        </mxCell>
        <mxCell id="R3AlAm0W0zi-2Ks8pdnL-23" style="edgeStyle=orthogonalEdgeStyle;html=1;exitX=0;exitY=0.5;exitDx=0;exitDy=0;" parent="1" source="R3AlAm0W0zi-2Ks8pdnL-22" target="R3AlAm0W0zi-2Ks8pdnL-2" edge="1">
          <mxGeometry relative="1" as="geometry" />
        </mxCell>
        <mxCell id="R3AlAm0W0zi-2Ks8pdnL-22" value="Notification" style="rounded=0;whiteSpace=wrap;html=1;" parent="1" vertex="1">
          <mxGeometry x="435" y="140" width="120" height="40" as="geometry" />
        </mxCell>
        <mxCell id="R3AlAm0W0zi-2Ks8pdnL-25" value="Journal d&#39;activites" style="rounded=0;whiteSpace=wrap;html=1;" parent="1" vertex="1">
          <mxGeometry x="695" y="492.5" width="120" height="60" as="geometry" />
        </mxCell>
        <mxCell id="R3AlAm0W0zi-2Ks8pdnL-55" style="edgeStyle=orthogonalEdgeStyle;html=1;exitX=1;exitY=0.5;exitDx=0;exitDy=0;" parent="1" source="R3AlAm0W0zi-2Ks8pdnL-27" target="R3AlAm0W0zi-2Ks8pdnL-19" edge="1">
          <mxGeometry relative="1" as="geometry" />
        </mxCell>
        <mxCell id="R3AlAm0W0zi-2Ks8pdnL-27" value="" style="shape=sumEllipse;perimeter=ellipsePerimeter;whiteSpace=wrap;html=1;backgroundOutline=1;" parent="1" vertex="1">
          <mxGeometry x="325" y="342.5" width="80" height="80" as="geometry" />
        </mxCell>
        <mxCell id="R3AlAm0W0zi-2Ks8pdnL-39" style="edgeStyle=orthogonalEdgeStyle;html=1;exitX=1;exitY=0.5;exitDx=0;exitDy=0;" parent="1" source="R3AlAm0W0zi-2Ks8pdnL-35" target="R3AlAm0W0zi-2Ks8pdnL-38" edge="1">
          <mxGeometry relative="1" as="geometry" />
        </mxCell>
        <mxCell id="R3AlAm0W0zi-2Ks8pdnL-35" value="Conditions&lt;br&gt;d&#39;envoi&lt;br&gt;atteintes?" style="rhombus;whiteSpace=wrap;html=1;" parent="1" vertex="1">
          <mxGeometry x="875" y="342.5" width="120" height="80" as="geometry" />
        </mxCell>
        <mxCell id="R3AlAm0W0zi-2Ks8pdnL-42" style="edgeStyle=orthogonalEdgeStyle;html=1;exitX=0.5;exitY=0;exitDx=0;exitDy=0;entryX=1;entryY=0.5;entryDx=0;entryDy=0;" parent="1" source="R3AlAm0W0zi-2Ks8pdnL-37" target="R3AlAm0W0zi-2Ks8pdnL-41" edge="1">
          <mxGeometry relative="1" as="geometry" />
        </mxCell>
        <mxCell id="R3AlAm0W0zi-2Ks8pdnL-37" value="Destinataire" style="rounded=0;whiteSpace=wrap;html=1;" parent="1" vertex="1">
          <mxGeometry x="1175" y="362.5" width="120" height="40" as="geometry" />
        </mxCell>
        <mxCell id="R3AlAm0W0zi-2Ks8pdnL-40" style="edgeStyle=orthogonalEdgeStyle;html=1;exitX=1;exitY=0.5;exitDx=0;exitDy=0;" parent="1" source="R3AlAm0W0zi-2Ks8pdnL-38" target="R3AlAm0W0zi-2Ks8pdnL-37" edge="1">
          <mxGeometry relative="1" as="geometry" />
        </mxCell>
        <mxCell id="R3AlAm0W0zi-2Ks8pdnL-38" value="Envoi" style="shape=step;perimeter=stepPerimeter;whiteSpace=wrap;html=1;fixedSize=1;" parent="1" vertex="1">
          <mxGeometry x="1025" y="342.5" width="120" height="80" as="geometry" />
        </mxCell>
        <mxCell id="R3AlAm0W0zi-2Ks8pdnL-46" style="edgeStyle=orthogonalEdgeStyle;html=1;exitX=0;exitY=0.5;exitDx=0;exitDy=0;" parent="1" source="R3AlAm0W0zi-2Ks8pdnL-41" target="R3AlAm0W0zi-2Ks8pdnL-45" edge="1">
          <mxGeometry relative="1" as="geometry" />
        </mxCell>
        <mxCell id="R3AlAm0W0zi-2Ks8pdnL-41" value="Lu?" style="rhombus;whiteSpace=wrap;html=1;" parent="1" vertex="1">
          <mxGeometry x="1025" y="220" width="120" height="80" as="geometry" />
        </mxCell>
        <mxCell id="R3AlAm0W0zi-2Ks8pdnL-47" style="edgeStyle=orthogonalEdgeStyle;html=1;exitX=0;exitY=0.5;exitDx=0;exitDy=0;entryX=0.855;entryY=0;entryDx=0;entryDy=4.35;entryPerimeter=0;" parent="1" source="R3AlAm0W0zi-2Ks8pdnL-45" target="R3AlAm0W0zi-2Ks8pdnL-1" edge="1">
          <mxGeometry relative="1" as="geometry" />
        </mxCell>
        <mxCell id="R3AlAm0W0zi-2Ks8pdnL-45" value="Notification" style="rounded=0;whiteSpace=wrap;html=1;" parent="1" vertex="1">
          <mxGeometry x="875" y="240" width="120" height="40" as="geometry" />
        </mxCell>
        <mxCell id="R3AlAm0W0zi-2Ks8pdnL-53" style="edgeStyle=orthogonalEdgeStyle;html=1;exitX=0.5;exitY=1;exitDx=0;exitDy=0;entryX=0;entryY=0.5;entryDx=0;entryDy=0;" parent="1" source="R3AlAm0W0zi-2Ks8pdnL-50" target="R3AlAm0W0zi-2Ks8pdnL-27" edge="1">
          <mxGeometry relative="1" as="geometry" />
        </mxCell>
        <mxCell id="R3AlAm0W0zi-2Ks8pdnL-50" value="Configuration Parametres&lt;br&gt;message" style="rounded=0;whiteSpace=wrap;html=1;fillColor=#0050ef;fontColor=#ffffff;strokeColor=#001DBC;" parent="1" vertex="1">
          <mxGeometry x="105" y="240" width="120" height="60" as="geometry" />
        </mxCell>
        <mxCell id="6qpf-OhKiiXSJHIyFdE2-3" style="edgeStyle=orthogonalEdgeStyle;html=1;exitX=1;exitY=0.5;exitDx=0;exitDy=0;" parent="1" source="R3AlAm0W0zi-2Ks8pdnL-57" target="R3AlAm0W0zi-2Ks8pdnL-3" edge="1">
          <mxGeometry relative="1" as="geometry" />
        </mxCell>
        <mxCell id="R3AlAm0W0zi-2Ks8pdnL-57" value="Partenaire" style="rounded=0;whiteSpace=wrap;html=1;fillColor=#d80073;fontColor=#ffffff;strokeColor=#A50040;" parent="1" vertex="1">
          <mxGeometry x="70" y="680" width="80" height="40" as="geometry" />
        </mxCell>
        <mxCell id="6qpf-OhKiiXSJHIyFdE2-1" value="Retour" style="ellipse;html=1;shape=endState;fillColor=#000000;strokeColor=#ff0000;" parent="1" vertex="1">
          <mxGeometry x="212.5" y="770" width="55" height="50" as="geometry" />
        </mxCell>
        <mxCell id="Zm-BFcqicCEameqNaV_R-1" value="Contenu Professionel" style="rounded=0;whiteSpace=wrap;html=1;" parent="1" vertex="1">
          <mxGeometry x="350" y="640" width="130" height="40" as="geometry" />
        </mxCell>
        <mxCell id="Zm-BFcqicCEameqNaV_R-2" value="Information generale" style="rounded=0;whiteSpace=wrap;html=1;" parent="1" vertex="1">
          <mxGeometry x="350" y="680" width="130" height="40" as="geometry" />
        </mxCell>
        <mxCell id="Zm-BFcqicCEameqNaV_R-3" value="Alerte" style="rounded=0;whiteSpace=wrap;html=1;" parent="1" vertex="1">
          <mxGeometry x="350" y="720" width="130" height="40" as="geometry" />
        </mxCell>
        <mxCell id="Zm-BFcqicCEameqNaV_R-8" style="edgeStyle=orthogonalEdgeStyle;html=1;exitX=0.5;exitY=1;exitDx=0;exitDy=0;entryX=0.5;entryY=0;entryDx=0;entryDy=0;" parent="1" source="Zm-BFcqicCEameqNaV_R-12" target="Zm-BFcqicCEameqNaV_R-15" edge="1">
          <mxGeometry relative="1" as="geometry" />
        </mxCell>
        <mxCell id="Zm-BFcqicCEameqNaV_R-9" style="edgeStyle=none;html=1;exitX=1;exitY=0.5;exitDx=0;exitDy=0;" parent="1" source="Zm-BFcqicCEameqNaV_R-12" target="Zm-BFcqicCEameqNaV_R-17" edge="1">
          <mxGeometry relative="1" as="geometry" />
        </mxCell>
        <mxCell id="Zm-BFcqicCEameqNaV_R-10" style="edgeStyle=orthogonalEdgeStyle;html=1;exitX=1;exitY=0.5;exitDx=0;exitDy=0;entryX=0;entryY=0.5;entryDx=0;entryDy=0;" parent="1" source="Zm-BFcqicCEameqNaV_R-12" target="Zm-BFcqicCEameqNaV_R-16" edge="1">
          <mxGeometry relative="1" as="geometry" />
        </mxCell>
        <mxCell id="Zm-BFcqicCEameqNaV_R-11" style="edgeStyle=orthogonalEdgeStyle;html=1;exitX=1;exitY=0.5;exitDx=0;exitDy=0;entryX=0;entryY=0.5;entryDx=0;entryDy=0;" parent="1" source="Zm-BFcqicCEameqNaV_R-12" target="Zm-BFcqicCEameqNaV_R-18" edge="1">
          <mxGeometry relative="1" as="geometry" />
        </mxCell>
        <mxCell id="Zm-BFcqicCEameqNaV_R-12" value="Public cible?" style="rhombus;whiteSpace=wrap;html=1;" parent="1" vertex="1">
          <mxGeometry x="620" y="660" width="120" height="80" as="geometry" />
        </mxCell>
        <mxCell id="Zm-BFcqicCEameqNaV_R-13" style="edgeStyle=orthogonalEdgeStyle;html=1;exitX=1;exitY=0.5;exitDx=0;exitDy=0;" parent="1" source="Zm-BFcqicCEameqNaV_R-14" target="Zm-BFcqicCEameqNaV_R-12" edge="1">
          <mxGeometry relative="1" as="geometry" />
        </mxCell>
        <mxCell id="Zm-BFcqicCEameqNaV_R-14" value="Partenaire" style="rounded=0;whiteSpace=wrap;html=1;fillColor=#d80073;fontColor=#ffffff;strokeColor=#A50040;" parent="1" vertex="1">
          <mxGeometry x="510" y="680" width="80" height="40" as="geometry" />
        </mxCell>
        <mxCell id="Zm-BFcqicCEameqNaV_R-15" value="Retour" style="ellipse;html=1;shape=endState;fillColor=#000000;strokeColor=#ff0000;" parent="1" vertex="1">
          <mxGeometry x="652.5" y="770" width="55" height="50" as="geometry" />
        </mxCell>
        <mxCell id="Zm-BFcqicCEameqNaV_R-16" value="Tous les clients" style="rounded=0;whiteSpace=wrap;html=1;" parent="1" vertex="1">
          <mxGeometry x="790" y="640" width="110" height="40" as="geometry" />
        </mxCell>
        <mxCell id="Zm-BFcqicCEameqNaV_R-17" value="Clients VIP" style="rounded=0;whiteSpace=wrap;html=1;" parent="1" vertex="1">
          <mxGeometry x="790" y="680" width="110" height="40" as="geometry" />
        </mxCell>
        <mxCell id="Zm-BFcqicCEameqNaV_R-18" value="Proximité" style="rounded=0;whiteSpace=wrap;html=1;" parent="1" vertex="1">
          <mxGeometry x="790" y="720" width="110" height="40" as="geometry" />
        </mxCell>
        <mxCell id="Zm-BFcqicCEameqNaV_R-20" style="edgeStyle=orthogonalEdgeStyle;html=1;exitX=0.5;exitY=1;exitDx=0;exitDy=0;entryX=0.5;entryY=0;entryDx=0;entryDy=0;" parent="1" source="Zm-BFcqicCEameqNaV_R-24" target="Zm-BFcqicCEameqNaV_R-27" edge="1">
          <mxGeometry relative="1" as="geometry" />
        </mxCell>
        <mxCell id="Zm-BFcqicCEameqNaV_R-22" style="edgeStyle=orthogonalEdgeStyle;html=1;exitX=1;exitY=0.5;exitDx=0;exitDy=0;entryX=0;entryY=0.5;entryDx=0;entryDy=0;" parent="1" source="Zm-BFcqicCEameqNaV_R-24" target="Zm-BFcqicCEameqNaV_R-28" edge="1">
          <mxGeometry relative="1" as="geometry" />
        </mxCell>
        <mxCell id="Zm-BFcqicCEameqNaV_R-23" style="edgeStyle=orthogonalEdgeStyle;html=1;exitX=1;exitY=0.5;exitDx=0;exitDy=0;entryX=0;entryY=0.5;entryDx=0;entryDy=0;" parent="1" source="Zm-BFcqicCEameqNaV_R-24" target="Zm-BFcqicCEameqNaV_R-30" edge="1">
          <mxGeometry relative="1" as="geometry" />
        </mxCell>
        <mxCell id="Zm-BFcqicCEameqNaV_R-24" value="Horaire" style="rhombus;whiteSpace=wrap;html=1;" parent="1" vertex="1">
          <mxGeometry x="1050" y="660" width="120" height="80" as="geometry" />
        </mxCell>
        <mxCell id="Zm-BFcqicCEameqNaV_R-25" style="edgeStyle=orthogonalEdgeStyle;html=1;exitX=1;exitY=0.5;exitDx=0;exitDy=0;" parent="1" source="Zm-BFcqicCEameqNaV_R-26" target="Zm-BFcqicCEameqNaV_R-24" edge="1">
          <mxGeometry relative="1" as="geometry" />
        </mxCell>
        <mxCell id="Zm-BFcqicCEameqNaV_R-26" value="Partenaire" style="rounded=0;whiteSpace=wrap;html=1;fillColor=#d80073;fontColor=#ffffff;strokeColor=#A50040;" parent="1" vertex="1">
          <mxGeometry x="940" y="680" width="80" height="40" as="geometry" />
        </mxCell>
        <mxCell id="Zm-BFcqicCEameqNaV_R-27" value="Retour" style="ellipse;html=1;shape=endState;fillColor=#000000;strokeColor=#ff0000;" parent="1" vertex="1">
          <mxGeometry x="1082.5" y="770" width="55" height="50" as="geometry" />
        </mxCell>
        <mxCell id="Zm-BFcqicCEameqNaV_R-28" value="Immediat" style="rounded=0;whiteSpace=wrap;html=1;" parent="1" vertex="1">
          <mxGeometry x="1220" y="640" width="110" height="40" as="geometry" />
        </mxCell>
        <mxCell id="Zm-BFcqicCEameqNaV_R-30" value="Differe" style="rounded=0;whiteSpace=wrap;html=1;" parent="1" vertex="1">
          <mxGeometry x="1220" y="720" width="110" height="40" as="geometry" />
        </mxCell>
        <mxCell id="Zm-BFcqicCEameqNaV_R-31" value="&lt;span style=&quot;font-weight: 400;&quot;&gt;Configuration Parametres Message&lt;/span&gt;" style="swimlane;whiteSpace=wrap;html=1;fillColor=#0050ef;fontColor=#ffffff;strokeColor=#001DBC;" parent="1" vertex="1">
          <mxGeometry x="40" y="600" width="1320" height="230" as="geometry" />
        </mxCell>
      </root>
    </mxGraphModel>
  </diagram>
  <diagram id="W6RMSphbb4R-sZK6XQPz" name="CLASSES">
    <mxGraphModel dx="1434" dy="836" grid="1" gridSize="10" guides="1" tooltips="1" connect="1" arrows="1" fold="1" page="1" pageScale="1" pageWidth="1400" pageHeight="850" math="0" shadow="0">
      <root>
        <mxCell id="0" />
        <mxCell id="1" parent="0" />
        <mxCell id="NZT87ZV2PnWzYhANc2ur-1" value="Conception de logicel&lt;br&gt;Laboratoire 3&lt;br&gt;&lt;br&gt;Diagrammes de classes&lt;br&gt;&lt;br&gt;Version 0.2&lt;br&gt;Novembre 2023" style="rounded=0;whiteSpace=wrap;html=1;fillColor=#a20025;fontColor=#ffffff;strokeColor=#6F0000;" parent="1" vertex="1">
          <mxGeometry width="320" height="120" as="geometry" />
        </mxCell>
        <mxCell id="NZT87ZV2PnWzYhANc2ur-2" value="Utilisateur" style="swimlane;fontStyle=1;align=center;verticalAlign=top;childLayout=stackLayout;horizontal=1;startSize=26;horizontalStack=0;resizeParent=1;resizeParentMax=0;resizeLast=0;collapsible=1;marginBottom=0;" parent="1" vertex="1">
          <mxGeometry x="140" y="148" width="370" height="372" as="geometry">
            <mxRectangle x="530" y="140" width="100" height="30" as="alternateBounds" />
          </mxGeometry>
        </mxCell>
        <mxCell id="NZT87ZV2PnWzYhANc2ur-3" value="- id: int" style="text;strokeColor=none;fillColor=none;align=left;verticalAlign=top;spacingLeft=4;spacingRight=4;overflow=hidden;rotatable=0;points=[[0,0.5],[1,0.5]];portConstraint=eastwest;" parent="NZT87ZV2PnWzYhANc2ur-2" vertex="1">
          <mxGeometry y="26" width="370" height="26" as="geometry" />
        </mxCell>
        <mxCell id="NZT87ZV2PnWzYhANc2ur-6" value="- nom: String" style="text;strokeColor=none;fillColor=none;align=left;verticalAlign=top;spacingLeft=4;spacingRight=4;overflow=hidden;rotatable=0;points=[[0,0.5],[1,0.5]];portConstraint=eastwest;" parent="NZT87ZV2PnWzYhANc2ur-2" vertex="1">
          <mxGeometry y="52" width="370" height="26" as="geometry" />
        </mxCell>
        <mxCell id="NZT87ZV2PnWzYhANc2ur-7" value="- prenom: String" style="text;strokeColor=none;fillColor=none;align=left;verticalAlign=top;spacingLeft=4;spacingRight=4;overflow=hidden;rotatable=0;points=[[0,0.5],[1,0.5]];portConstraint=eastwest;" parent="NZT87ZV2PnWzYhANc2ur-2" vertex="1">
          <mxGeometry y="78" width="370" height="26" as="geometry" />
        </mxCell>
        <mxCell id="NZT87ZV2PnWzYhANc2ur-8" value="- dateDeNaissance: Date" style="text;strokeColor=none;fillColor=none;align=left;verticalAlign=top;spacingLeft=4;spacingRight=4;overflow=hidden;rotatable=0;points=[[0,0.5],[1,0.5]];portConstraint=eastwest;" parent="NZT87ZV2PnWzYhANc2ur-2" vertex="1">
          <mxGeometry y="104" width="370" height="26" as="geometry" />
        </mxCell>
        <mxCell id="NZT87ZV2PnWzYhANc2ur-10" value="- adresse: String" style="text;strokeColor=none;fillColor=none;align=left;verticalAlign=top;spacingLeft=4;spacingRight=4;overflow=hidden;rotatable=0;points=[[0,0.5],[1,0.5]];portConstraint=eastwest;" parent="NZT87ZV2PnWzYhANc2ur-2" vertex="1">
          <mxGeometry y="130" width="370" height="26" as="geometry" />
        </mxCell>
        <mxCell id="NZT87ZV2PnWzYhANc2ur-9" value="- courriel: String" style="text;strokeColor=none;fillColor=none;align=left;verticalAlign=top;spacingLeft=4;spacingRight=4;overflow=hidden;rotatable=0;points=[[0,0.5],[1,0.5]];portConstraint=eastwest;" parent="NZT87ZV2PnWzYhANc2ur-2" vertex="1">
          <mxGeometry y="156" width="370" height="26" as="geometry" />
        </mxCell>
        <mxCell id="fUJwCpsrxEZ8bBtRbH8o-1" value="- preferences: Preferences" style="text;strokeColor=none;fillColor=none;align=left;verticalAlign=top;spacingLeft=4;spacingRight=4;overflow=hidden;rotatable=0;points=[[0,0.5],[1,0.5]];portConstraint=eastwest;" parent="NZT87ZV2PnWzYhANc2ur-2" vertex="1">
          <mxGeometry y="182" width="370" height="26" as="geometry" />
        </mxCell>
        <mxCell id="NZT87ZV2PnWzYhANc2ur-11" value="- localisation: Localisation" style="text;strokeColor=none;fillColor=none;align=left;verticalAlign=top;spacingLeft=4;spacingRight=4;overflow=hidden;rotatable=0;points=[[0,0.5],[1,0.5]];portConstraint=eastwest;" parent="NZT87ZV2PnWzYhANc2ur-2" vertex="1">
          <mxGeometry y="208" width="370" height="26" as="geometry" />
        </mxCell>
        <mxCell id="NZT87ZV2PnWzYhANc2ur-4" value="" style="line;strokeWidth=1;fillColor=none;align=left;verticalAlign=middle;spacingTop=-1;spacingLeft=3;spacingRight=3;rotatable=0;labelPosition=right;points=[];portConstraint=eastwest;strokeColor=inherit;" parent="NZT87ZV2PnWzYhANc2ur-2" vertex="1">
          <mxGeometry y="234" width="370" height="8" as="geometry" />
        </mxCell>
        <mxCell id="NZT87ZV2PnWzYhANc2ur-5" value="+ getter/setter " style="text;strokeColor=none;fillColor=none;align=left;verticalAlign=top;spacingLeft=4;spacingRight=4;overflow=hidden;rotatable=0;points=[[0,0.5],[1,0.5]];portConstraint=eastwest;" parent="NZT87ZV2PnWzYhANc2ur-2" vertex="1">
          <mxGeometry y="242" width="370" height="26" as="geometry" />
        </mxCell>
        <mxCell id="NZT87ZV2PnWzYhANc2ur-12" value="+ recevoirNotification(notification : Notification) : void" style="text;strokeColor=none;fillColor=none;align=left;verticalAlign=top;spacingLeft=4;spacingRight=4;overflow=hidden;rotatable=0;points=[[0,0.5],[1,0.5]];portConstraint=eastwest;" parent="NZT87ZV2PnWzYhANc2ur-2" vertex="1">
          <mxGeometry y="268" width="370" height="26" as="geometry" />
        </mxCell>
        <mxCell id="NZT87ZV2PnWzYhANc2ur-13" value="+ modifierPreferences(preferences : Preferences) : void" style="text;strokeColor=none;fillColor=none;align=left;verticalAlign=top;spacingLeft=4;spacingRight=4;overflow=hidden;rotatable=0;points=[[0,0.5],[1,0.5]];portConstraint=eastwest;" parent="NZT87ZV2PnWzYhANc2ur-2" vertex="1">
          <mxGeometry y="294" width="370" height="26" as="geometry" />
        </mxCell>
        <mxCell id="NZT87ZV2PnWzYhANc2ur-14" value="+ suivreCommerce(commerce : Commerce) : void" style="text;strokeColor=none;fillColor=none;align=left;verticalAlign=top;spacingLeft=4;spacingRight=4;overflow=hidden;rotatable=0;points=[[0,0.5],[1,0.5]];portConstraint=eastwest;" parent="NZT87ZV2PnWzYhANc2ur-2" vertex="1">
          <mxGeometry y="320" width="370" height="26" as="geometry" />
        </mxCell>
        <mxCell id="NZT87ZV2PnWzYhANc2ur-15" value="+ consulterCommerces() : List&lt;Commerce&gt;&#xa;" style="text;strokeColor=none;fillColor=none;align=left;verticalAlign=top;spacingLeft=4;spacingRight=4;overflow=hidden;rotatable=0;points=[[0,0.5],[1,0.5]];portConstraint=eastwest;" parent="NZT87ZV2PnWzYhANc2ur-2" vertex="1">
          <mxGeometry y="346" width="370" height="26" as="geometry" />
        </mxCell>
        <mxCell id="NZT87ZV2PnWzYhANc2ur-20" value="Notification" style="swimlane;fontStyle=1;align=center;verticalAlign=top;childLayout=stackLayout;horizontal=1;startSize=26;horizontalStack=0;resizeParent=1;resizeParentMax=0;resizeLast=0;collapsible=1;marginBottom=0;" parent="1" vertex="1">
          <mxGeometry x="690" y="520" width="360" height="268" as="geometry">
            <mxRectangle x="440" y="160" width="110" height="30" as="alternateBounds" />
          </mxGeometry>
        </mxCell>
        <mxCell id="NZT87ZV2PnWzYhANc2ur-21" value="- id : int" style="text;strokeColor=none;fillColor=none;align=left;verticalAlign=top;spacingLeft=4;spacingRight=4;overflow=hidden;rotatable=0;points=[[0,0.5],[1,0.5]];portConstraint=eastwest;" parent="NZT87ZV2PnWzYhANc2ur-20" vertex="1">
          <mxGeometry y="26" width="360" height="26" as="geometry" />
        </mxCell>
        <mxCell id="NZT87ZV2PnWzYhANc2ur-25" value="- titre : String" style="text;strokeColor=none;fillColor=none;align=left;verticalAlign=top;spacingLeft=4;spacingRight=4;overflow=hidden;rotatable=0;points=[[0,0.5],[1,0.5]];portConstraint=eastwest;" parent="NZT87ZV2PnWzYhANc2ur-20" vertex="1">
          <mxGeometry y="52" width="360" height="26" as="geometry" />
        </mxCell>
        <mxCell id="NZT87ZV2PnWzYhANc2ur-26" value="- message : String" style="text;strokeColor=none;fillColor=none;align=left;verticalAlign=top;spacingLeft=4;spacingRight=4;overflow=hidden;rotatable=0;points=[[0,0.5],[1,0.5]];portConstraint=eastwest;" parent="NZT87ZV2PnWzYhANc2ur-20" vertex="1">
          <mxGeometry y="78" width="360" height="26" as="geometry" />
        </mxCell>
        <mxCell id="NZT87ZV2PnWzYhANc2ur-27" value="- type : String" style="text;strokeColor=none;fillColor=none;align=left;verticalAlign=top;spacingLeft=4;spacingRight=4;overflow=hidden;rotatable=0;points=[[0,0.5],[1,0.5]];portConstraint=eastwest;" parent="NZT87ZV2PnWzYhANc2ur-20" vertex="1">
          <mxGeometry y="104" width="360" height="26" as="geometry" />
        </mxCell>
        <mxCell id="NZT87ZV2PnWzYhANc2ur-28" value="- dateEnvoi : DateTime" style="text;strokeColor=none;fillColor=none;align=left;verticalAlign=top;spacingLeft=4;spacingRight=4;overflow=hidden;rotatable=0;points=[[0,0.5],[1,0.5]];portConstraint=eastwest;" parent="NZT87ZV2PnWzYhANc2ur-20" vertex="1">
          <mxGeometry y="130" width="360" height="26" as="geometry" />
        </mxCell>
        <mxCell id="NZT87ZV2PnWzYhANc2ur-29" value="- statutLecture : boolean" style="text;strokeColor=none;fillColor=none;align=left;verticalAlign=top;spacingLeft=4;spacingRight=4;overflow=hidden;rotatable=0;points=[[0,0.5],[1,0.5]];portConstraint=eastwest;" parent="NZT87ZV2PnWzYhANc2ur-20" vertex="1">
          <mxGeometry y="156" width="360" height="26" as="geometry" />
        </mxCell>
        <mxCell id="NZT87ZV2PnWzYhANc2ur-22" value="" style="line;strokeWidth=1;fillColor=none;align=left;verticalAlign=middle;spacingTop=-1;spacingLeft=3;spacingRight=3;rotatable=0;labelPosition=right;points=[];portConstraint=eastwest;strokeColor=inherit;" parent="NZT87ZV2PnWzYhANc2ur-20" vertex="1">
          <mxGeometry y="182" width="360" height="8" as="geometry" />
        </mxCell>
        <mxCell id="NZT87ZV2PnWzYhANc2ur-31" value="+ getter/setters" style="text;strokeColor=none;fillColor=none;align=left;verticalAlign=top;spacingLeft=4;spacingRight=4;overflow=hidden;rotatable=0;points=[[0,0.5],[1,0.5]];portConstraint=eastwest;" parent="NZT87ZV2PnWzYhANc2ur-20" vertex="1">
          <mxGeometry y="190" width="360" height="26" as="geometry" />
        </mxCell>
        <mxCell id="NZT87ZV2PnWzYhANc2ur-30" value="+ envoyerUtilisateur(utilisateur : Utilisateur) : void" style="text;strokeColor=none;fillColor=none;align=left;verticalAlign=top;spacingLeft=4;spacingRight=4;overflow=hidden;rotatable=0;points=[[0,0.5],[1,0.5]];portConstraint=eastwest;" parent="NZT87ZV2PnWzYhANc2ur-20" vertex="1">
          <mxGeometry y="216" width="360" height="26" as="geometry" />
        </mxCell>
        <mxCell id="NZT87ZV2PnWzYhANc2ur-23" value="+ envoyerTous() : void" style="text;strokeColor=none;fillColor=none;align=left;verticalAlign=top;spacingLeft=4;spacingRight=4;overflow=hidden;rotatable=0;points=[[0,0.5],[1,0.5]];portConstraint=eastwest;" parent="NZT87ZV2PnWzYhANc2ur-20" vertex="1">
          <mxGeometry y="242" width="360" height="26" as="geometry" />
        </mxCell>
        <mxCell id="NZT87ZV2PnWzYhANc2ur-32" value="GestionnaireDeCommerce" style="swimlane;fontStyle=1;align=center;verticalAlign=top;childLayout=stackLayout;horizontal=1;startSize=26;horizontalStack=0;resizeParent=1;resizeParentMax=0;resizeLast=0;collapsible=1;marginBottom=0;" parent="1" vertex="1">
          <mxGeometry x="130" y="570" width="400" height="268" as="geometry" />
        </mxCell>
        <mxCell id="NZT87ZV2PnWzYhANc2ur-33" value="- idCommerce : int" style="text;strokeColor=none;fillColor=none;align=left;verticalAlign=top;spacingLeft=4;spacingRight=4;overflow=hidden;rotatable=0;points=[[0,0.5],[1,0.5]];portConstraint=eastwest;" parent="NZT87ZV2PnWzYhANc2ur-32" vertex="1">
          <mxGeometry y="26" width="400" height="26" as="geometry" />
        </mxCell>
        <mxCell id="NZT87ZV2PnWzYhANc2ur-37" value="- nomCommerce : String" style="text;strokeColor=none;fillColor=none;align=left;verticalAlign=top;spacingLeft=4;spacingRight=4;overflow=hidden;rotatable=0;points=[[0,0.5],[1,0.5]];portConstraint=eastwest;" parent="NZT87ZV2PnWzYhANc2ur-32" vertex="1">
          <mxGeometry y="52" width="400" height="26" as="geometry" />
        </mxCell>
        <mxCell id="fUJwCpsrxEZ8bBtRbH8o-32" value="- nomCommerce : String" style="text;strokeColor=none;fillColor=none;align=left;verticalAlign=top;spacingLeft=4;spacingRight=4;overflow=hidden;rotatable=0;points=[[0,0.5],[1,0.5]];portConstraint=eastwest;" parent="NZT87ZV2PnWzYhANc2ur-32" vertex="1">
          <mxGeometry y="78" width="400" height="26" as="geometry" />
        </mxCell>
        <mxCell id="NZT87ZV2PnWzYhANc2ur-38" value="- descriptionCommerce : String" style="text;strokeColor=none;fillColor=none;align=left;verticalAlign=top;spacingLeft=4;spacingRight=4;overflow=hidden;rotatable=0;points=[[0,0.5],[1,0.5]];portConstraint=eastwest;" parent="NZT87ZV2PnWzYhANc2ur-32" vertex="1">
          <mxGeometry y="104" width="400" height="26" as="geometry" />
        </mxCell>
        <mxCell id="NZT87ZV2PnWzYhANc2ur-36" value="- adresseCommerce : String" style="text;strokeColor=none;fillColor=none;align=left;verticalAlign=top;spacingLeft=4;spacingRight=4;overflow=hidden;rotatable=0;points=[[0,0.5],[1,0.5]];portConstraint=eastwest;" parent="NZT87ZV2PnWzYhANc2ur-32" vertex="1">
          <mxGeometry y="130" width="400" height="26" as="geometry" />
        </mxCell>
        <mxCell id="NZT87ZV2PnWzYhANc2ur-34" value="" style="line;strokeWidth=1;fillColor=none;align=left;verticalAlign=middle;spacingTop=-1;spacingLeft=3;spacingRight=3;rotatable=0;labelPosition=right;points=[];portConstraint=eastwest;strokeColor=inherit;" parent="NZT87ZV2PnWzYhANc2ur-32" vertex="1">
          <mxGeometry y="156" width="400" height="8" as="geometry" />
        </mxCell>
        <mxCell id="NZT87ZV2PnWzYhANc2ur-35" value="+ getter/setters" style="text;strokeColor=none;fillColor=none;align=left;verticalAlign=top;spacingLeft=4;spacingRight=4;overflow=hidden;rotatable=0;points=[[0,0.5],[1,0.5]];portConstraint=eastwest;" parent="NZT87ZV2PnWzYhANc2ur-32" vertex="1">
          <mxGeometry y="164" width="400" height="26" as="geometry" />
        </mxCell>
        <mxCell id="NZT87ZV2PnWzYhANc2ur-40" value="+ creerNotification(notification : Notification) : void" style="text;strokeColor=none;fillColor=none;align=left;verticalAlign=top;spacingLeft=4;spacingRight=4;overflow=hidden;rotatable=0;points=[[0,0.5],[1,0.5]];portConstraint=eastwest;" parent="NZT87ZV2PnWzYhANc2ur-32" vertex="1">
          <mxGeometry y="190" width="400" height="26" as="geometry" />
        </mxCell>
        <mxCell id="NZT87ZV2PnWzYhANc2ur-41" value="+ modifierCommerce(informations : InformationsCommerce) : void" style="text;strokeColor=none;fillColor=none;align=left;verticalAlign=top;spacingLeft=4;spacingRight=4;overflow=hidden;rotatable=0;points=[[0,0.5],[1,0.5]];portConstraint=eastwest;" parent="NZT87ZV2PnWzYhANc2ur-32" vertex="1">
          <mxGeometry y="216" width="400" height="26" as="geometry" />
        </mxCell>
        <mxCell id="NZT87ZV2PnWzYhANc2ur-39" value="+ analyserStatistiques() : Statistiques" style="text;strokeColor=none;fillColor=none;align=left;verticalAlign=top;spacingLeft=4;spacingRight=4;overflow=hidden;rotatable=0;points=[[0,0.5],[1,0.5]];portConstraint=eastwest;" parent="NZT87ZV2PnWzYhANc2ur-32" vertex="1">
          <mxGeometry y="242" width="400" height="26" as="geometry" />
        </mxCell>
        <mxCell id="NZT87ZV2PnWzYhANc2ur-43" value="Preferences" style="swimlane;fontStyle=1;align=center;verticalAlign=top;childLayout=stackLayout;horizontal=1;startSize=26;horizontalStack=0;resizeParent=1;resizeParentMax=0;resizeLast=0;collapsible=1;marginBottom=0;" parent="1" vertex="1">
          <mxGeometry x="720" y="150" width="320" height="320" as="geometry" />
        </mxCell>
        <mxCell id="NZT87ZV2PnWzYhANc2ur-44" value="- id: int " style="text;strokeColor=none;fillColor=none;align=left;verticalAlign=top;spacingLeft=4;spacingRight=4;overflow=hidden;rotatable=0;points=[[0,0.5],[1,0.5]];portConstraint=eastwest;" parent="NZT87ZV2PnWzYhANc2ur-43" vertex="1">
          <mxGeometry y="26" width="320" height="26" as="geometry" />
        </mxCell>
        <mxCell id="NZT87ZV2PnWzYhANc2ur-47" value="- alerte: boolean" style="text;strokeColor=none;fillColor=none;align=left;verticalAlign=top;spacingLeft=4;spacingRight=4;overflow=hidden;rotatable=0;points=[[0,0.5],[1,0.5]];portConstraint=eastwest;" parent="NZT87ZV2PnWzYhANc2ur-43" vertex="1">
          <mxGeometry y="52" width="320" height="26" as="geometry" />
        </mxCell>
        <mxCell id="NZT87ZV2PnWzYhANc2ur-48" value="- notificationPromo: boolean" style="text;strokeColor=none;fillColor=none;align=left;verticalAlign=top;spacingLeft=4;spacingRight=4;overflow=hidden;rotatable=0;points=[[0,0.5],[1,0.5]];portConstraint=eastwest;" parent="NZT87ZV2PnWzYhANc2ur-43" vertex="1">
          <mxGeometry y="78" width="320" height="26" as="geometry" />
        </mxCell>
        <mxCell id="NZT87ZV2PnWzYhANc2ur-49" value="- rayon: int" style="text;strokeColor=none;fillColor=none;align=left;verticalAlign=top;spacingLeft=4;spacingRight=4;overflow=hidden;rotatable=0;points=[[0,0.5],[1,0.5]];portConstraint=eastwest;" parent="NZT87ZV2PnWzYhANc2ur-43" vertex="1">
          <mxGeometry y="104" width="320" height="26" as="geometry" />
        </mxCell>
        <mxCell id="NZT87ZV2PnWzYhANc2ur-50" value="- theme: Theme" style="text;strokeColor=none;fillColor=none;align=left;verticalAlign=top;spacingLeft=4;spacingRight=4;overflow=hidden;rotatable=0;points=[[0,0.5],[1,0.5]];portConstraint=eastwest;" parent="NZT87ZV2PnWzYhANc2ur-43" vertex="1">
          <mxGeometry y="130" width="320" height="26" as="geometry" />
        </mxCell>
        <mxCell id="NZT87ZV2PnWzYhANc2ur-51" value="- langueId: int" style="text;strokeColor=none;fillColor=none;align=left;verticalAlign=top;spacingLeft=4;spacingRight=4;overflow=hidden;rotatable=0;points=[[0,0.5],[1,0.5]];portConstraint=eastwest;" parent="NZT87ZV2PnWzYhANc2ur-43" vertex="1">
          <mxGeometry y="156" width="320" height="26" as="geometry" />
        </mxCell>
        <mxCell id="NZT87ZV2PnWzYhANc2ur-45" value="" style="line;strokeWidth=1;fillColor=none;align=left;verticalAlign=middle;spacingTop=-1;spacingLeft=3;spacingRight=3;rotatable=0;labelPosition=right;points=[];portConstraint=eastwest;strokeColor=inherit;" parent="NZT87ZV2PnWzYhANc2ur-43" vertex="1">
          <mxGeometry y="182" width="320" height="8" as="geometry" />
        </mxCell>
        <mxCell id="NZT87ZV2PnWzYhANc2ur-46" value="+ getter" style="text;strokeColor=none;fillColor=none;align=left;verticalAlign=top;spacingLeft=4;spacingRight=4;overflow=hidden;rotatable=0;points=[[0,0.5],[1,0.5]];portConstraint=eastwest;" parent="NZT87ZV2PnWzYhANc2ur-43" vertex="1">
          <mxGeometry y="190" width="320" height="26" as="geometry" />
        </mxCell>
        <mxCell id="NZT87ZV2PnWzYhANc2ur-53" value="+ setAlert(boolean) : void " style="text;strokeColor=none;fillColor=none;align=left;verticalAlign=top;spacingLeft=4;spacingRight=4;overflow=hidden;rotatable=0;points=[[0,0.5],[1,0.5]];portConstraint=eastwest;" parent="NZT87ZV2PnWzYhANc2ur-43" vertex="1">
          <mxGeometry y="216" width="320" height="26" as="geometry" />
        </mxCell>
        <mxCell id="NZT87ZV2PnWzYhANc2ur-54" value="+ setNoficationPromo(boolean): void" style="text;strokeColor=none;fillColor=none;align=left;verticalAlign=top;spacingLeft=4;spacingRight=4;overflow=hidden;rotatable=0;points=[[0,0.5],[1,0.5]];portConstraint=eastwest;" parent="NZT87ZV2PnWzYhANc2ur-43" vertex="1">
          <mxGeometry y="242" width="320" height="26" as="geometry" />
        </mxCell>
        <mxCell id="NZT87ZV2PnWzYhANc2ur-56" value="+ setTheme(theme: Theme): void" style="text;strokeColor=none;fillColor=none;align=left;verticalAlign=top;spacingLeft=4;spacingRight=4;overflow=hidden;rotatable=0;points=[[0,0.5],[1,0.5]];portConstraint=eastwest;" parent="NZT87ZV2PnWzYhANc2ur-43" vertex="1">
          <mxGeometry y="268" width="320" height="26" as="geometry" />
        </mxCell>
        <mxCell id="NZT87ZV2PnWzYhANc2ur-57" value="+ setLangage(langueId : int): void" style="text;strokeColor=none;fillColor=none;align=left;verticalAlign=top;spacingLeft=4;spacingRight=4;overflow=hidden;rotatable=0;points=[[0,0.5],[1,0.5]];portConstraint=eastwest;" parent="NZT87ZV2PnWzYhANc2ur-43" vertex="1">
          <mxGeometry y="294" width="320" height="26" as="geometry" />
        </mxCell>
        <mxCell id="fUJwCpsrxEZ8bBtRbH8o-8" value="" style="endArrow=none;startArrow=diamondThin;endFill=0;startFill=1;html=1;verticalAlign=bottom;labelBackgroundColor=none;strokeWidth=1;startSize=8;endSize=8;entryX=0;entryY=0.5;entryDx=0;entryDy=0;exitX=1;exitY=0.5;exitDx=0;exitDy=0;" parent="1" source="NZT87ZV2PnWzYhANc2ur-8" target="NZT87ZV2PnWzYhANc2ur-49" edge="1">
          <mxGeometry width="160" relative="1" as="geometry">
            <mxPoint x="1010" y="312.5" as="sourcePoint" />
            <mxPoint x="1170" y="312.5" as="targetPoint" />
          </mxGeometry>
        </mxCell>
        <mxCell id="fUJwCpsrxEZ8bBtRbH8o-10" value="1" style="edgeLabel;html=1;align=center;verticalAlign=middle;resizable=0;points=[];" parent="fUJwCpsrxEZ8bBtRbH8o-8" vertex="1" connectable="0">
          <mxGeometry x="0.62" relative="1" as="geometry">
            <mxPoint as="offset" />
          </mxGeometry>
        </mxCell>
        <mxCell id="fUJwCpsrxEZ8bBtRbH8o-27" value="" style="endArrow=block;dashed=1;endFill=0;endSize=12;html=1;exitX=0.5;exitY=0;exitDx=0;exitDy=0;entryX=0.514;entryY=1.154;entryDx=0;entryDy=0;entryPerimeter=0;" parent="1" source="NZT87ZV2PnWzYhANc2ur-32" target="NZT87ZV2PnWzYhANc2ur-15" edge="1">
          <mxGeometry width="160" relative="1" as="geometry">
            <mxPoint x="610" y="530" as="sourcePoint" />
            <mxPoint x="340" y="530" as="targetPoint" />
          </mxGeometry>
        </mxCell>
        <mxCell id="fUJwCpsrxEZ8bBtRbH8o-31" value="Use" style="endArrow=open;endSize=12;dashed=1;html=1;exitX=0;exitY=0.5;exitDx=0;exitDy=0;entryX=1;entryY=0.5;entryDx=0;entryDy=0;" parent="1" source="NZT87ZV2PnWzYhANc2ur-27" target="NZT87ZV2PnWzYhANc2ur-37" edge="1">
          <mxGeometry width="160" relative="1" as="geometry">
            <mxPoint x="500" y="620" as="sourcePoint" />
            <mxPoint x="660" y="620" as="targetPoint" />
            <Array as="points">
              <mxPoint x="650" y="637" />
              <mxPoint x="590" y="637" />
            </Array>
          </mxGeometry>
        </mxCell>
        <mxCell id="fUJwCpsrxEZ8bBtRbH8o-33" value="Use" style="endArrow=open;endSize=12;dashed=1;html=1;exitX=0;exitY=0;exitDx=0;exitDy=0;entryX=1;entryY=0.5;entryDx=0;entryDy=0;" parent="1" source="NZT87ZV2PnWzYhANc2ur-20" target="NZT87ZV2PnWzYhANc2ur-12" edge="1">
          <mxGeometry width="160" relative="1" as="geometry">
            <mxPoint x="690" y="462" as="sourcePoint" />
            <mxPoint x="530" y="460" as="targetPoint" />
          </mxGeometry>
        </mxCell>
      </root>
    </mxGraphModel>
  </diagram>
  <diagram id="zXbaapZh446ohMdzqNIh" name="CLASSES OLD">
    <mxGraphModel dx="1434" dy="836" grid="1" gridSize="10" guides="1" tooltips="1" connect="1" arrows="1" fold="1" page="1" pageScale="1" pageWidth="827" pageHeight="1169" math="0" shadow="0">
      <root>
        <mxCell id="0" />
        <mxCell id="1" parent="0" />
        <mxCell id="zJv-h-53LpiLsEafyLeY-1" value="Conception de logicel&lt;br&gt;Laboratoire 3&lt;br&gt;&lt;br&gt;Diagrammes de classes&lt;br&gt;&lt;br&gt;Version 0&lt;br&gt;Novembre 2023" style="rounded=0;whiteSpace=wrap;html=1;fillColor=#a20025;fontColor=#ffffff;strokeColor=#6F0000;" vertex="1" parent="1">
          <mxGeometry width="320" height="120" as="geometry" />
        </mxCell>
        <mxCell id="zJv-h-53LpiLsEafyLeY-2" value="Utilisateur" style="swimlane;fontStyle=1;align=center;verticalAlign=top;childLayout=stackLayout;horizontal=1;startSize=26;horizontalStack=0;resizeParent=1;resizeParentMax=0;resizeLast=0;collapsible=1;marginBottom=0;" vertex="1" parent="1">
          <mxGeometry x="40" y="160" width="360" height="346" as="geometry" />
        </mxCell>
        <mxCell id="zJv-h-53LpiLsEafyLeY-3" value="id(uuid) - private" style="text;strokeColor=none;fillColor=none;align=left;verticalAlign=top;spacingLeft=4;spacingRight=4;overflow=hidden;rotatable=0;points=[[0,0.5],[1,0.5]];portConstraint=eastwest;" vertex="1" parent="zJv-h-53LpiLsEafyLeY-2">
          <mxGeometry y="26" width="360" height="26" as="geometry" />
        </mxCell>
        <mxCell id="zJv-h-53LpiLsEafyLeY-4" value="nom(string) - private" style="text;strokeColor=none;fillColor=none;align=left;verticalAlign=top;spacingLeft=4;spacingRight=4;overflow=hidden;rotatable=0;points=[[0,0.5],[1,0.5]];portConstraint=eastwest;" vertex="1" parent="zJv-h-53LpiLsEafyLeY-2">
          <mxGeometry y="52" width="360" height="26" as="geometry" />
        </mxCell>
        <mxCell id="zJv-h-53LpiLsEafyLeY-5" value="prenom(string) - private" style="text;strokeColor=none;fillColor=none;align=left;verticalAlign=top;spacingLeft=4;spacingRight=4;overflow=hidden;rotatable=0;points=[[0,0.5],[1,0.5]];portConstraint=eastwest;" vertex="1" parent="zJv-h-53LpiLsEafyLeY-2">
          <mxGeometry y="78" width="360" height="26" as="geometry" />
        </mxCell>
        <mxCell id="zJv-h-53LpiLsEafyLeY-6" value="naissance(date) - private" style="text;strokeColor=none;fillColor=none;align=left;verticalAlign=top;spacingLeft=4;spacingRight=4;overflow=hidden;rotatable=0;points=[[0,0.5],[1,0.5]];portConstraint=eastwest;" vertex="1" parent="zJv-h-53LpiLsEafyLeY-2">
          <mxGeometry y="104" width="360" height="26" as="geometry" />
        </mxCell>
        <mxCell id="zJv-h-53LpiLsEafyLeY-7" value="adresse(string) - private" style="text;strokeColor=none;fillColor=none;align=left;verticalAlign=top;spacingLeft=4;spacingRight=4;overflow=hidden;rotatable=0;points=[[0,0.5],[1,0.5]];portConstraint=eastwest;" vertex="1" parent="zJv-h-53LpiLsEafyLeY-2">
          <mxGeometry y="130" width="360" height="26" as="geometry" />
        </mxCell>
        <mxCell id="zJv-h-53LpiLsEafyLeY-8" value="courriel(string) - private" style="text;strokeColor=none;fillColor=none;align=left;verticalAlign=top;spacingLeft=4;spacingRight=4;overflow=hidden;rotatable=0;points=[[0,0.5],[1,0.5]];portConstraint=eastwest;" vertex="1" parent="zJv-h-53LpiLsEafyLeY-2">
          <mxGeometry y="156" width="360" height="26" as="geometry" />
        </mxCell>
        <mxCell id="zJv-h-53LpiLsEafyLeY-9" value="location(Location) - private" style="text;strokeColor=none;fillColor=none;align=left;verticalAlign=top;spacingLeft=4;spacingRight=4;overflow=hidden;rotatable=0;points=[[0,0.5],[1,0.5]];portConstraint=eastwest;" vertex="1" parent="zJv-h-53LpiLsEafyLeY-2">
          <mxGeometry y="182" width="360" height="26" as="geometry" />
        </mxCell>
        <mxCell id="zJv-h-53LpiLsEafyLeY-10" value="" style="line;strokeWidth=1;fillColor=none;align=left;verticalAlign=middle;spacingTop=-1;spacingLeft=3;spacingRight=3;rotatable=0;labelPosition=right;points=[];portConstraint=eastwest;strokeColor=inherit;" vertex="1" parent="zJv-h-53LpiLsEafyLeY-2">
          <mxGeometry y="208" width="360" height="8" as="geometry" />
        </mxCell>
        <mxCell id="zJv-h-53LpiLsEafyLeY-11" value="getter/setter - public" style="text;strokeColor=none;fillColor=none;align=left;verticalAlign=top;spacingLeft=4;spacingRight=4;overflow=hidden;rotatable=0;points=[[0,0.5],[1,0.5]];portConstraint=eastwest;" vertex="1" parent="zJv-h-53LpiLsEafyLeY-2">
          <mxGeometry y="216" width="360" height="26" as="geometry" />
        </mxCell>
        <mxCell id="zJv-h-53LpiLsEafyLeY-12" value="recevoirNotification(notification : Notification) : void (public)" style="text;strokeColor=none;fillColor=none;align=left;verticalAlign=top;spacingLeft=4;spacingRight=4;overflow=hidden;rotatable=0;points=[[0,0.5],[1,0.5]];portConstraint=eastwest;" vertex="1" parent="zJv-h-53LpiLsEafyLeY-2">
          <mxGeometry y="242" width="360" height="26" as="geometry" />
        </mxCell>
        <mxCell id="zJv-h-53LpiLsEafyLeY-13" value="modifierPreferences(preferences : Preferences) : void (public)" style="text;strokeColor=none;fillColor=none;align=left;verticalAlign=top;spacingLeft=4;spacingRight=4;overflow=hidden;rotatable=0;points=[[0,0.5],[1,0.5]];portConstraint=eastwest;" vertex="1" parent="zJv-h-53LpiLsEafyLeY-2">
          <mxGeometry y="268" width="360" height="26" as="geometry" />
        </mxCell>
        <mxCell id="zJv-h-53LpiLsEafyLeY-14" value="suivreCommerce(commerce : Commerce) : void (public)" style="text;strokeColor=none;fillColor=none;align=left;verticalAlign=top;spacingLeft=4;spacingRight=4;overflow=hidden;rotatable=0;points=[[0,0.5],[1,0.5]];portConstraint=eastwest;" vertex="1" parent="zJv-h-53LpiLsEafyLeY-2">
          <mxGeometry y="294" width="360" height="26" as="geometry" />
        </mxCell>
        <mxCell id="zJv-h-53LpiLsEafyLeY-15" value="consulterCommerces() : List&lt;Commerce&gt; (public)" style="text;strokeColor=none;fillColor=none;align=left;verticalAlign=top;spacingLeft=4;spacingRight=4;overflow=hidden;rotatable=0;points=[[0,0.5],[1,0.5]];portConstraint=eastwest;" vertex="1" parent="zJv-h-53LpiLsEafyLeY-2">
          <mxGeometry y="320" width="360" height="26" as="geometry" />
        </mxCell>
        <mxCell id="zJv-h-53LpiLsEafyLeY-16" value="Notification" style="swimlane;fontStyle=1;align=center;verticalAlign=top;childLayout=stackLayout;horizontal=1;startSize=26;horizontalStack=0;resizeParent=1;resizeParentMax=0;resizeLast=0;collapsible=1;marginBottom=0;" vertex="1" parent="1">
          <mxGeometry x="440" y="160" width="360" height="268" as="geometry" />
        </mxCell>
        <mxCell id="zJv-h-53LpiLsEafyLeY-17" value="id : int (private)" style="text;strokeColor=none;fillColor=none;align=left;verticalAlign=top;spacingLeft=4;spacingRight=4;overflow=hidden;rotatable=0;points=[[0,0.5],[1,0.5]];portConstraint=eastwest;" vertex="1" parent="zJv-h-53LpiLsEafyLeY-16">
          <mxGeometry y="26" width="360" height="26" as="geometry" />
        </mxCell>
        <mxCell id="zJv-h-53LpiLsEafyLeY-18" value="titre : String (private)" style="text;strokeColor=none;fillColor=none;align=left;verticalAlign=top;spacingLeft=4;spacingRight=4;overflow=hidden;rotatable=0;points=[[0,0.5],[1,0.5]];portConstraint=eastwest;" vertex="1" parent="zJv-h-53LpiLsEafyLeY-16">
          <mxGeometry y="52" width="360" height="26" as="geometry" />
        </mxCell>
        <mxCell id="zJv-h-53LpiLsEafyLeY-19" value="message : String (private)" style="text;strokeColor=none;fillColor=none;align=left;verticalAlign=top;spacingLeft=4;spacingRight=4;overflow=hidden;rotatable=0;points=[[0,0.5],[1,0.5]];portConstraint=eastwest;" vertex="1" parent="zJv-h-53LpiLsEafyLeY-16">
          <mxGeometry y="78" width="360" height="26" as="geometry" />
        </mxCell>
        <mxCell id="zJv-h-53LpiLsEafyLeY-20" value="type : String (private)" style="text;strokeColor=none;fillColor=none;align=left;verticalAlign=top;spacingLeft=4;spacingRight=4;overflow=hidden;rotatable=0;points=[[0,0.5],[1,0.5]];portConstraint=eastwest;" vertex="1" parent="zJv-h-53LpiLsEafyLeY-16">
          <mxGeometry y="104" width="360" height="26" as="geometry" />
        </mxCell>
        <mxCell id="zJv-h-53LpiLsEafyLeY-21" value="dateEnvoi : DateTime (private)" style="text;strokeColor=none;fillColor=none;align=left;verticalAlign=top;spacingLeft=4;spacingRight=4;overflow=hidden;rotatable=0;points=[[0,0.5],[1,0.5]];portConstraint=eastwest;" vertex="1" parent="zJv-h-53LpiLsEafyLeY-16">
          <mxGeometry y="130" width="360" height="26" as="geometry" />
        </mxCell>
        <mxCell id="zJv-h-53LpiLsEafyLeY-22" value="statutLecture : boolean (private)" style="text;strokeColor=none;fillColor=none;align=left;verticalAlign=top;spacingLeft=4;spacingRight=4;overflow=hidden;rotatable=0;points=[[0,0.5],[1,0.5]];portConstraint=eastwest;" vertex="1" parent="zJv-h-53LpiLsEafyLeY-16">
          <mxGeometry y="156" width="360" height="26" as="geometry" />
        </mxCell>
        <mxCell id="zJv-h-53LpiLsEafyLeY-23" value="" style="line;strokeWidth=1;fillColor=none;align=left;verticalAlign=middle;spacingTop=-1;spacingLeft=3;spacingRight=3;rotatable=0;labelPosition=right;points=[];portConstraint=eastwest;strokeColor=inherit;" vertex="1" parent="zJv-h-53LpiLsEafyLeY-16">
          <mxGeometry y="182" width="360" height="8" as="geometry" />
        </mxCell>
        <mxCell id="zJv-h-53LpiLsEafyLeY-24" value="getter/setters - public" style="text;strokeColor=none;fillColor=none;align=left;verticalAlign=top;spacingLeft=4;spacingRight=4;overflow=hidden;rotatable=0;points=[[0,0.5],[1,0.5]];portConstraint=eastwest;" vertex="1" parent="zJv-h-53LpiLsEafyLeY-16">
          <mxGeometry y="190" width="360" height="26" as="geometry" />
        </mxCell>
        <mxCell id="zJv-h-53LpiLsEafyLeY-25" value="envoyerUtilisateur(utilisateur : Utilisateur) : void (public)" style="text;strokeColor=none;fillColor=none;align=left;verticalAlign=top;spacingLeft=4;spacingRight=4;overflow=hidden;rotatable=0;points=[[0,0.5],[1,0.5]];portConstraint=eastwest;" vertex="1" parent="zJv-h-53LpiLsEafyLeY-16">
          <mxGeometry y="216" width="360" height="26" as="geometry" />
        </mxCell>
        <mxCell id="zJv-h-53LpiLsEafyLeY-26" value="envoyerTous() : void (public)" style="text;strokeColor=none;fillColor=none;align=left;verticalAlign=top;spacingLeft=4;spacingRight=4;overflow=hidden;rotatable=0;points=[[0,0.5],[1,0.5]];portConstraint=eastwest;" vertex="1" parent="zJv-h-53LpiLsEafyLeY-16">
          <mxGeometry y="242" width="360" height="26" as="geometry" />
        </mxCell>
        <mxCell id="zJv-h-53LpiLsEafyLeY-27" value="GestionnaireDeCommerce" style="swimlane;fontStyle=1;align=center;verticalAlign=top;childLayout=stackLayout;horizontal=1;startSize=26;horizontalStack=0;resizeParent=1;resizeParentMax=0;resizeLast=0;collapsible=1;marginBottom=0;" vertex="1" parent="1">
          <mxGeometry x="40" y="560" width="400" height="242" as="geometry" />
        </mxCell>
        <mxCell id="zJv-h-53LpiLsEafyLeY-28" value="idCommerce : int (private)" style="text;strokeColor=none;fillColor=none;align=left;verticalAlign=top;spacingLeft=4;spacingRight=4;overflow=hidden;rotatable=0;points=[[0,0.5],[1,0.5]];portConstraint=eastwest;" vertex="1" parent="zJv-h-53LpiLsEafyLeY-27">
          <mxGeometry y="26" width="400" height="26" as="geometry" />
        </mxCell>
        <mxCell id="zJv-h-53LpiLsEafyLeY-29" value="nomCommerce : String (private)" style="text;strokeColor=none;fillColor=none;align=left;verticalAlign=top;spacingLeft=4;spacingRight=4;overflow=hidden;rotatable=0;points=[[0,0.5],[1,0.5]];portConstraint=eastwest;" vertex="1" parent="zJv-h-53LpiLsEafyLeY-27">
          <mxGeometry y="52" width="400" height="26" as="geometry" />
        </mxCell>
        <mxCell id="zJv-h-53LpiLsEafyLeY-30" value="descriptionCommerce : String (private)" style="text;strokeColor=none;fillColor=none;align=left;verticalAlign=top;spacingLeft=4;spacingRight=4;overflow=hidden;rotatable=0;points=[[0,0.5],[1,0.5]];portConstraint=eastwest;" vertex="1" parent="zJv-h-53LpiLsEafyLeY-27">
          <mxGeometry y="78" width="400" height="26" as="geometry" />
        </mxCell>
        <mxCell id="zJv-h-53LpiLsEafyLeY-31" value="adresseCommerce : String (private)" style="text;strokeColor=none;fillColor=none;align=left;verticalAlign=top;spacingLeft=4;spacingRight=4;overflow=hidden;rotatable=0;points=[[0,0.5],[1,0.5]];portConstraint=eastwest;" vertex="1" parent="zJv-h-53LpiLsEafyLeY-27">
          <mxGeometry y="104" width="400" height="26" as="geometry" />
        </mxCell>
        <mxCell id="zJv-h-53LpiLsEafyLeY-32" value="" style="line;strokeWidth=1;fillColor=none;align=left;verticalAlign=middle;spacingTop=-1;spacingLeft=3;spacingRight=3;rotatable=0;labelPosition=right;points=[];portConstraint=eastwest;strokeColor=inherit;" vertex="1" parent="zJv-h-53LpiLsEafyLeY-27">
          <mxGeometry y="130" width="400" height="8" as="geometry" />
        </mxCell>
        <mxCell id="zJv-h-53LpiLsEafyLeY-33" value="getter/setters - public" style="text;strokeColor=none;fillColor=none;align=left;verticalAlign=top;spacingLeft=4;spacingRight=4;overflow=hidden;rotatable=0;points=[[0,0.5],[1,0.5]];portConstraint=eastwest;" vertex="1" parent="zJv-h-53LpiLsEafyLeY-27">
          <mxGeometry y="138" width="400" height="26" as="geometry" />
        </mxCell>
        <mxCell id="zJv-h-53LpiLsEafyLeY-34" value="creerNotification(notification : Notification) : void (public)" style="text;strokeColor=none;fillColor=none;align=left;verticalAlign=top;spacingLeft=4;spacingRight=4;overflow=hidden;rotatable=0;points=[[0,0.5],[1,0.5]];portConstraint=eastwest;" vertex="1" parent="zJv-h-53LpiLsEafyLeY-27">
          <mxGeometry y="164" width="400" height="26" as="geometry" />
        </mxCell>
        <mxCell id="zJv-h-53LpiLsEafyLeY-35" value="modifierCommerce(informations : InformationsCommerce) : void (public)" style="text;strokeColor=none;fillColor=none;align=left;verticalAlign=top;spacingLeft=4;spacingRight=4;overflow=hidden;rotatable=0;points=[[0,0.5],[1,0.5]];portConstraint=eastwest;" vertex="1" parent="zJv-h-53LpiLsEafyLeY-27">
          <mxGeometry y="190" width="400" height="26" as="geometry" />
        </mxCell>
        <mxCell id="zJv-h-53LpiLsEafyLeY-36" value="analyserStatistiques() : Statistiques (public)" style="text;strokeColor=none;fillColor=none;align=left;verticalAlign=top;spacingLeft=4;spacingRight=4;overflow=hidden;rotatable=0;points=[[0,0.5],[1,0.5]];portConstraint=eastwest;" vertex="1" parent="zJv-h-53LpiLsEafyLeY-27">
          <mxGeometry y="216" width="400" height="26" as="geometry" />
        </mxCell>
        <mxCell id="zJv-h-53LpiLsEafyLeY-37" value="Préférences" style="swimlane;fontStyle=1;align=center;verticalAlign=top;childLayout=stackLayout;horizontal=1;startSize=26;horizontalStack=0;resizeParent=1;resizeParentMax=0;resizeLast=0;collapsible=1;marginBottom=0;" vertex="1" parent="1">
          <mxGeometry x="840" y="160" width="320" height="320" as="geometry" />
        </mxCell>
        <mxCell id="zJv-h-53LpiLsEafyLeY-38" value="id(uuid) - private" style="text;strokeColor=none;fillColor=none;align=left;verticalAlign=top;spacingLeft=4;spacingRight=4;overflow=hidden;rotatable=0;points=[[0,0.5],[1,0.5]];portConstraint=eastwest;" vertex="1" parent="zJv-h-53LpiLsEafyLeY-37">
          <mxGeometry y="26" width="320" height="26" as="geometry" />
        </mxCell>
        <mxCell id="zJv-h-53LpiLsEafyLeY-39" value="alerte(bool) - private" style="text;strokeColor=none;fillColor=none;align=left;verticalAlign=top;spacingLeft=4;spacingRight=4;overflow=hidden;rotatable=0;points=[[0,0.5],[1,0.5]];portConstraint=eastwest;" vertex="1" parent="zJv-h-53LpiLsEafyLeY-37">
          <mxGeometry y="52" width="320" height="26" as="geometry" />
        </mxCell>
        <mxCell id="zJv-h-53LpiLsEafyLeY-40" value="notificationPromo(bool) - private" style="text;strokeColor=none;fillColor=none;align=left;verticalAlign=top;spacingLeft=4;spacingRight=4;overflow=hidden;rotatable=0;points=[[0,0.5],[1,0.5]];portConstraint=eastwest;" vertex="1" parent="zJv-h-53LpiLsEafyLeY-37">
          <mxGeometry y="78" width="320" height="26" as="geometry" />
        </mxCell>
        <mxCell id="zJv-h-53LpiLsEafyLeY-41" value="rayon(int) - private" style="text;strokeColor=none;fillColor=none;align=left;verticalAlign=top;spacingLeft=4;spacingRight=4;overflow=hidden;rotatable=0;points=[[0,0.5],[1,0.5]];portConstraint=eastwest;" vertex="1" parent="zJv-h-53LpiLsEafyLeY-37">
          <mxGeometry y="104" width="320" height="26" as="geometry" />
        </mxCell>
        <mxCell id="zJv-h-53LpiLsEafyLeY-42" value="theme(Theme) - private" style="text;strokeColor=none;fillColor=none;align=left;verticalAlign=top;spacingLeft=4;spacingRight=4;overflow=hidden;rotatable=0;points=[[0,0.5],[1,0.5]];portConstraint=eastwest;" vertex="1" parent="zJv-h-53LpiLsEafyLeY-37">
          <mxGeometry y="130" width="320" height="26" as="geometry" />
        </mxCell>
        <mxCell id="zJv-h-53LpiLsEafyLeY-43" value="langueId(int) - private" style="text;strokeColor=none;fillColor=none;align=left;verticalAlign=top;spacingLeft=4;spacingRight=4;overflow=hidden;rotatable=0;points=[[0,0.5],[1,0.5]];portConstraint=eastwest;" vertex="1" parent="zJv-h-53LpiLsEafyLeY-37">
          <mxGeometry y="156" width="320" height="26" as="geometry" />
        </mxCell>
        <mxCell id="zJv-h-53LpiLsEafyLeY-44" value="" style="line;strokeWidth=1;fillColor=none;align=left;verticalAlign=middle;spacingTop=-1;spacingLeft=3;spacingRight=3;rotatable=0;labelPosition=right;points=[];portConstraint=eastwest;strokeColor=inherit;" vertex="1" parent="zJv-h-53LpiLsEafyLeY-37">
          <mxGeometry y="182" width="320" height="8" as="geometry" />
        </mxCell>
        <mxCell id="zJv-h-53LpiLsEafyLeY-45" value="getter - public" style="text;strokeColor=none;fillColor=none;align=left;verticalAlign=top;spacingLeft=4;spacingRight=4;overflow=hidden;rotatable=0;points=[[0,0.5],[1,0.5]];portConstraint=eastwest;" vertex="1" parent="zJv-h-53LpiLsEafyLeY-37">
          <mxGeometry y="190" width="320" height="26" as="geometry" />
        </mxCell>
        <mxCell id="zJv-h-53LpiLsEafyLeY-46" value="setAlert(bool) : void - public " style="text;strokeColor=none;fillColor=none;align=left;verticalAlign=top;spacingLeft=4;spacingRight=4;overflow=hidden;rotatable=0;points=[[0,0.5],[1,0.5]];portConstraint=eastwest;" vertex="1" parent="zJv-h-53LpiLsEafyLeY-37">
          <mxGeometry y="216" width="320" height="26" as="geometry" />
        </mxCell>
        <mxCell id="zJv-h-53LpiLsEafyLeY-47" value="setNoficationPromo(bool) void - public" style="text;strokeColor=none;fillColor=none;align=left;verticalAlign=top;spacingLeft=4;spacingRight=4;overflow=hidden;rotatable=0;points=[[0,0.5],[1,0.5]];portConstraint=eastwest;" vertex="1" parent="zJv-h-53LpiLsEafyLeY-37">
          <mxGeometry y="242" width="320" height="26" as="geometry" />
        </mxCell>
        <mxCell id="zJv-h-53LpiLsEafyLeY-48" value="setTheme(theme: Theme) void - public" style="text;strokeColor=none;fillColor=none;align=left;verticalAlign=top;spacingLeft=4;spacingRight=4;overflow=hidden;rotatable=0;points=[[0,0.5],[1,0.5]];portConstraint=eastwest;" vertex="1" parent="zJv-h-53LpiLsEafyLeY-37">
          <mxGeometry y="268" width="320" height="26" as="geometry" />
        </mxCell>
        <mxCell id="zJv-h-53LpiLsEafyLeY-49" value="setLangage(langueId : int) void - public" style="text;strokeColor=none;fillColor=none;align=left;verticalAlign=top;spacingLeft=4;spacingRight=4;overflow=hidden;rotatable=0;points=[[0,0.5],[1,0.5]];portConstraint=eastwest;" vertex="1" parent="zJv-h-53LpiLsEafyLeY-37">
          <mxGeometry y="294" width="320" height="26" as="geometry" />
        </mxCell>
      </root>
    </mxGraphModel>
  </diagram>
</mxfile>
